<svg width="25" height="25" viewBox="0 0 25 25" fill="none" xmlns="http://www.w3.org/2000/svg">
<g clip-path="url(#clip0)">
<path d="M12.2325 19.5721H13.7264C13.7264 19.5721 14.1779 19.5221 14.4077 19.2737C14.6202 19.0455 14.6124 18.6174 14.6124 18.6174C14.6124 18.6174 14.5827 16.6125 15.514 16.3172C16.4312 16.0265 17.6094 18.2548 18.858 19.1127C19.8018 19.7612 20.519 19.619 20.519 19.619L23.8583 19.5721C23.8583 19.5721 25.6053 19.4643 24.7772 18.0908C24.71 17.9782 24.2943 17.075 22.2942 15.2187C20.2003 13.2748 20.4815 13.5904 23.0036 10.2292C24.5396 8.1822 25.1537 6.93211 24.9615 6.39769C24.7787 5.88828 23.649 6.02267 23.649 6.02267L19.8924 6.04454C19.8924 6.04454 19.6143 6.00704 19.4065 6.13049C19.2049 6.25237 19.0752 6.53364 19.0752 6.53364C19.0752 6.53364 18.4798 8.11813 17.686 9.46511C16.0125 12.3075 15.3421 12.4575 15.0686 12.2809C14.4327 11.87 14.592 10.6277 14.592 9.74638C14.592 6.99149 15.0093 5.84297 13.7779 5.54607C13.3685 5.44762 13.0685 5.38199 12.0231 5.37106C10.6824 5.35699 9.54636 5.37574 8.90412 5.68983C8.47597 5.89922 8.14626 6.36644 8.34783 6.39301C8.59629 6.42582 9.15883 6.54458 9.45729 6.95086C9.84326 7.47434 9.82919 8.65255 9.82919 8.65255C9.82919 8.65255 10.0511 11.895 9.31197 12.2981C8.80412 12.5747 8.10875 12.0106 6.61646 9.43073C5.85234 8.11032 5.27417 6.64928 5.27417 6.64928C5.27417 6.64928 5.16323 6.37738 4.96477 6.23206C4.72413 6.05548 4.38661 5.99923 4.38661 5.99923L0.814471 6.0211C0.814471 6.0211 0.278494 6.03673 0.0816048 6.26956C-0.093408 6.47739 0.0675413 6.90554 0.0675413 6.90554C0.0675413 6.90554 2.86462 13.4482 6.03048 16.7469C8.93538 19.7706 12.2325 19.5721 12.2325 19.5721Z" fill="#1E88E5"/>
</g>
<defs>
<clipPath id="clip0">
<rect width="25" height="25" fill="white"/>
</clipPath>
</defs>
</svg>
