<svg width="15" height="15" viewBox="0 0 15 15" fill="none" xmlns="http://www.w3.org/2000/svg">
<g opacity="0.6" clip-path="url(#clip0)">
<path d="M12.3916 8.02975C12.3916 7.78279 12.1913 7.58252 11.9442 7.58252C11.6971 7.58252 11.4969 7.78279 11.4969 8.02975C11.4969 10.2179 9.71685 11.9979 7.52873 11.9979C5.34073 11.9979 3.56072 10.2179 3.56072 8.02975C3.56072 7.78279 3.36044 7.58252 3.11337 7.58252C2.86629 7.58252 2.66602 7.78279 2.66602 8.02975C2.66602 10.5604 4.609 12.6452 7.08138 12.8717V14.076H5.4213C5.17422 14.076 4.97395 14.2763 4.97395 14.5234C4.97395 14.7704 5.17422 14.9707 5.4213 14.9707H9.63628C9.88325 14.9707 10.0835 14.7704 10.0835 14.5234C10.0835 14.2763 9.88325 14.076 9.63628 14.076H7.97608V12.8717C10.4486 12.6453 12.3916 10.5604 12.3916 8.02975Z" fill="black"/>
<path d="M7.52878 10.8941C9.10817 10.8941 10.3931 9.60917 10.3931 8.02976V2.83494C10.3931 1.25565 9.10817 -0.0292969 7.52878 -0.0292969C5.94949 -0.0292969 4.66455 1.25565 4.66455 2.83494V8.02976C4.66455 9.60917 5.94949 10.8941 7.52878 10.8941ZM5.55913 2.83494C5.55913 1.74889 6.44273 0.865404 7.52878 0.865404C8.61482 0.865404 9.49842 1.74889 9.49842 2.83494V8.02976C9.49842 9.11581 8.61482 9.99941 7.52878 9.99941C6.44273 9.99941 5.55913 9.11581 5.55913 8.02976V2.83494Z" fill="black"/>
</g>
<defs>
<clipPath id="clip0">
<rect width="15" height="15" fill="white"/>
</clipPath>
</defs>
</svg>
