<svg width="25" height="25" viewBox="0 0 25 25" fill="none" xmlns="http://www.w3.org/2000/svg">
<path d="M25 3.73643H6.5625L6.03487 0.66748H1.36322C0.609149 0.66748 0 1.27776 0 2.03127V3.3945H3.73755L6.14244 17.3828C6.19565 17.6908 6.49173 17.9405 6.8048 17.9405H22.9546C23.7087 17.9405 24.319 17.3307 24.319 16.5755V15.2134H8.53601L8.20369 13.2807H20.6822C22.1881 13.2807 23.6102 12.076 23.8587 10.5916L25 3.73643Z" fill="#30BE58"/>
<path d="M11.0225 24.3331C12.3247 24.3331 13.3804 23.2774 13.3804 21.9752C13.3804 20.673 12.3247 19.6173 11.0225 19.6173C9.72022 19.6173 8.66455 20.673 8.66455 21.9752C8.66455 23.2774 9.72022 24.3331 11.0225 24.3331Z" fill="#30BE58"/>
<path d="M16.8491 21.9747C16.8491 23.2762 17.9038 24.332 19.2053 24.332C20.508 24.332 21.5649 23.2762 21.5649 21.9747C21.5649 20.6732 20.508 19.6162 19.2053 19.6162C17.9038 19.6162 16.8491 20.6737 16.8491 21.9747Z" fill="#30BE58"/>
</svg>
