<svg width="25" height="25" viewBox="0 0 25 25" fill="none" xmlns="http://www.w3.org/2000/svg">
<g clip-path="url(#clip0)">
<path d="M12.5 0C9.13452 0 6.39648 2.73804 6.39648 6.10352C6.39648 9.46899 9.13452 12.207 12.5 12.207C15.8655 12.207 18.6035 9.46899 18.6035 6.10352C18.6035 2.73804 15.8655 0 12.5 0Z" fill="#30BE58"/>
<path d="M12.5782 13.6719H12.3883C11.4783 13.6719 10.5798 13.8012 9.71777 14.0496L12.5011 18.3534L15.2812 14.0544C14.4095 13.8029 13.5 13.6719 12.5782 13.6719Z" fill="#30BE58"/>
<path d="M22.1541 21.8731C21.6732 18.7102 19.6465 15.9574 16.6856 14.5801L13.2324 19.9199V25H22.6295L22.1541 21.8731Z" fill="#30BE58"/>
<path d="M8.31338 14.5752C5.3375 15.9609 3.32397 18.7297 2.84604 21.8731L2.37061 25H11.7677V19.9168L8.31338 14.5752Z" fill="#30BE58"/>
</g>
<defs>
<clipPath id="clip0">
<rect width="25" height="25" fill="white"/>
</clipPath>
</defs>
</svg>
