<svg width="25" height="25" viewBox="0 0 25 25" fill="none" xmlns="http://www.w3.org/2000/svg">
<path d="M7.99769 11.4767C7.99769 11.0619 7.66123 10.7256 7.24638 10.7256H3.35482C2.93978 10.7256 2.60352 11.0619 2.60352 11.4767V21.9952H7.99769V11.4767Z" fill="#30BE58"/>
<path d="M22.486 7.23019C22.486 6.81515 22.1495 6.47888 21.7347 6.47888H17.8431C17.4283 6.47888 17.0918 6.81515 17.0918 7.23019V21.9952H22.486V7.23019Z" fill="#30BE58"/>
<path d="M15.2416 12.8567C15.2416 12.4418 14.9054 12.1053 14.4905 12.1053H10.5988C10.1839 12.1053 9.84766 12.4418 9.84766 12.8567V21.9951H15.2416V12.8567Z" fill="#30BE58"/>
<path d="M23.1178 23.4976H1.97201C1.55697 23.4976 1.2207 23.8338 1.2207 24.2487C1.2207 24.6637 1.55697 25 1.97201 25H23.1178C23.5327 25 23.8691 24.6637 23.8691 24.2487C23.8691 23.8338 23.5327 23.4976 23.1178 23.4976Z" fill="#30BE58"/>
<path d="M6.46314 8.60672C6.48527 8.60672 6.50777 8.60577 6.53009 8.60386C6.59799 8.59776 8.21847 8.44784 10.5189 7.63283C12.6311 6.88438 15.7506 5.40466 18.6177 2.60487C18.632 2.59094 18.645 2.57626 18.658 2.56138V3.71742C18.658 4.13246 18.9942 4.46873 19.4091 4.46873C19.8239 4.46873 20.1604 4.13246 20.1604 3.71742V0.751305C20.1604 0.336266 19.8239 0 19.4091 0H16.4428C16.0279 0 15.6917 0.336266 15.6917 0.751305C15.6917 1.16615 16.0279 1.50242 16.4428 1.50242H17.5994C17.5889 1.51157 17.578 1.52016 17.5679 1.53008C14.9127 4.12312 12.0231 5.50041 10.0665 6.19907C7.93409 6.96068 6.41222 7.10583 6.39715 7.10716C5.9844 7.14417 5.67941 7.50847 5.71584 7.92141C5.75037 8.31242 6.07824 8.60672 6.46314 8.60672Z" fill="#30BE58"/>
</svg>
