<svg width="19" height="29" viewBox="0 0 19 29" fill="none" xmlns="http://www.w3.org/2000/svg">
<path d="M11.0448 27.1173C9.85268 26.9574 8.71121 26.6397 7.64642 26.1729V29H11.0448V27.1173Z" fill="#30BE58"/>
<path d="M11.8945 0V5.51655C13.1709 5.87933 14.3384 6.50119 15.3304 7.33058C15.512 6.10097 16.5616 5.15428 17.8417 5.15428H18.6913V1.69921H17.8417C16.9255 1.69921 16.068 1.92345 15.2929 2.29348V0L11.8945 0Z" fill="#30BE58"/>
<path d="M0.849607 0H0V3.39843H0.849607C2.25729 3.39843 3.39843 4.5962 3.39843 6.00389V7.29642C4.36947 6.49326 5.5076 5.88885 6.74894 5.52884C6.50306 2.47032 3.97146 0 0.849607 0Z" fill="#30BE58"/>
<path d="M8.49607 8.55262V6.93927C4.68332 7.36821 1.69922 10.5743 1.69922 14.4999C1.69922 19.085 4.50887 23.0245 8.49607 24.6925V22.1463C8.49607 21.4528 8.64124 20.7924 8.89244 20.1855C7.66346 19.6734 6.79686 18.4614 6.79686 17.0487H8.49607C8.49607 17.8666 9.08898 18.5192 9.85997 18.68C10.2915 18.2155 10.8042 17.8232 11.3925 17.544C11.0797 17.2354 10.6516 17.0487 10.1953 17.0487V15.3495C11.7037 15.3495 13.0104 16.3185 13.4477 17.7605L13.7115 18.6309L12.8254 18.835C11.2772 19.1918 10.1953 20.5542 10.1953 22.1463V25.236C11.015 25.4308 11.8657 25.5447 12.7441 25.5447C15.0864 25.5447 16.9921 23.639 16.9921 21.2967V14.4999C16.9921 10.5743 14.008 7.36821 10.1953 6.93927C10.1953 7.11038 10.1953 9.57333 10.1953 9.40222C10.1953 10.8077 11.3386 11.951 12.7441 11.951H13.5937V13.6503H12.7441C11.0448 13.6503 9.586 12.6405 8.90717 11.1954C8.32558 11.6609 7.59815 11.951 6.79686 11.951V10.2518C7.73358 10.2518 8.49607 9.48934 8.49607 8.55262Z" fill="#30BE58"/>
</svg>
