<svg width="15" height="15" viewBox="0 0 15 15" fill="none" xmlns="http://www.w3.org/2000/svg">
<path d="M14.8169 13.9331L10.5512 9.6675C11.3775 8.64688 11.875 7.35 11.875 5.93751C11.875 2.66376 9.21123 0 5.93748 0C2.66373 0 0 2.66373 0 5.93748C0 9.21123 2.66376 11.875 5.93751 11.875C7.35 11.875 8.64688 11.3775 9.6675 10.5512L13.9331 14.8169C14.055 14.9387 14.215 15 14.375 15C14.535 15 14.695 14.9387 14.8169 14.8169C15.0613 14.5725 15.0613 14.1775 14.8169 13.9331ZM5.93751 10.625C3.3525 10.625 1.25001 8.52249 1.25001 5.93748C1.25001 3.35247 3.3525 1.24998 5.93751 1.24998C8.52252 1.24998 10.625 3.35247 10.625 5.93748C10.625 8.52249 8.52249 10.625 5.93751 10.625Z" fill="black"/>
</svg>
