<svg width="25" height="25" viewBox="0 0 25 25" fill="none" xmlns="http://www.w3.org/2000/svg">
<g clip-path="url(#clip0)">
<path d="M24.8627 12.0737C24.6396 11.7617 19.3197 4.44324 12.5492 4.44324C5.77806 4.44324 0.360535 11.7617 0.13739 12.0737C-0.0457153 12.3286 -0.0457153 12.6719 0.13739 12.9262C0.360535 13.2383 5.77806 20.5567 12.5492 20.5567C19.3197 20.5567 24.6396 13.2383 24.8627 12.9262C25.0458 12.6719 25.0458 12.3285 24.8627 12.0737ZM12.5492 17.6269C9.72245 17.6269 7.3245 15.3266 7.3245 12.4999C7.3245 9.67322 9.72245 7.37292 12.5492 7.37292C15.3759 7.37292 17.6762 9.67322 17.6762 12.4999C17.6762 15.3266 15.3759 17.6269 12.5492 17.6269Z" fill="#30BE58"/>
<path d="M12.5491 10.3026C11.3372 10.3026 10.2542 11.2885 10.2542 12.4999C10.2542 13.7118 11.3372 14.6971 12.5491 14.6971C13.7606 14.6971 14.7464 13.7118 14.7464 12.4999C14.7464 11.2885 13.7606 10.3026 12.5491 10.3026Z" fill="#30BE58"/>
</g>
<defs>
<clipPath id="clip0">
<rect width="25" height="25" fill="white"/>
</clipPath>
</defs>
</svg>
