<svg width="15" height="15" viewBox="0 0 15 15" fill="none" xmlns="http://www.w3.org/2000/svg">
<g clip-path="url(#clip0)">
<path d="M12.4219 1.875H9.84375V1.40625C9.84375 0.62959 9.21416 0 8.4375 0H6.5625C5.78584 0 5.15625 0.62959 5.15625 1.40625V1.875H2.57812C1.93093 1.875 1.40625 2.39968 1.40625 3.04688V3.98438C1.40625 4.24327 1.6161 4.45312 1.875 4.45312H13.125C13.3839 4.45312 13.5938 4.24327 13.5938 3.98438V3.04688C13.5938 2.39968 13.0691 1.875 12.4219 1.875ZM6.09375 1.40625C6.09375 1.14785 6.3041 0.9375 6.5625 0.9375H8.4375C8.6959 0.9375 8.90625 1.14785 8.90625 1.40625V1.875H6.09375V1.40625Z" fill="#1A1A1A"/>
<path d="M2.29589 5.45312C2.21225 5.45312 2.1456 5.52303 2.14958 5.60658L2.5363 13.723C2.57204 14.4742 3.18904 15.0625 3.94079 15.0625H11.0594C11.8111 15.0625 12.4281 14.4742 12.4638 13.723L12.8506 5.60658C12.8545 5.52303 12.7879 5.45312 12.7043 5.45312H2.29589ZM9.37507 6.625C9.37507 6.36602 9.58484 6.15625 9.84382 6.15625C10.1028 6.15625 10.3126 6.36602 10.3126 6.625V12.7188C10.3126 12.9777 10.1028 13.1875 9.84382 13.1875C9.58484 13.1875 9.37507 12.9777 9.37507 12.7188V6.625ZM7.03132 6.625C7.03132 6.36602 7.24109 6.15625 7.50007 6.15625C7.75906 6.15625 7.96882 6.36602 7.96882 6.625V12.7188C7.96882 12.9777 7.75906 13.1875 7.50007 13.1875C7.24109 13.1875 7.03132 12.9777 7.03132 12.7188V6.625ZM4.68757 6.625C4.68757 6.36602 4.89734 6.15625 5.15632 6.15625C5.41531 6.15625 5.62507 6.36602 5.62507 6.625V12.7188C5.62507 12.9777 5.41531 13.1875 5.15632 13.1875C4.89734 13.1875 4.68757 12.9777 4.68757 12.7188V6.625Z" fill="#1A1A1A"/>
</g>
<defs>
<clipPath id="clip0">
<rect width="15" height="15" fill="white"/>
</clipPath>
</defs>
</svg>
