<svg width="25" height="25" viewBox="0 0 25 25" fill="none" xmlns="http://www.w3.org/2000/svg">
<circle cx="12.5" cy="12.5" r="12.5" fill="#30BE58"/>
<path d="M10.057 17.104C9.18167 17.104 8.419 16.9177 7.769 16.545C7.119 16.1637 6.62067 15.622 6.274 14.92C5.92733 14.2093 5.754 13.373 5.754 12.411C5.754 11.4577 5.92733 10.63 6.274 9.928C6.62067 9.21733 7.119 8.67567 7.769 8.303C8.419 7.92167 9.18167 7.731 10.057 7.731C10.629 7.731 11.1707 7.822 11.682 8.004C12.1933 8.17733 12.6397 8.433 13.021 8.771C13.1857 8.901 13.268 9.07433 13.268 9.291C13.268 9.447 13.2247 9.58133 13.138 9.694C13.0513 9.798 12.9473 9.85 12.826 9.85C12.6787 9.85 12.5357 9.79367 12.397 9.681C11.981 9.369 11.5997 9.15233 11.253 9.031C10.915 8.901 10.5293 8.836 10.096 8.836C9.14267 8.836 8.41033 9.14367 7.899 9.759C7.38767 10.3743 7.132 11.2583 7.132 12.411C7.132 13.5723 7.38767 14.4607 7.899 15.076C8.41033 15.6913 9.14267 15.999 10.096 15.999C10.512 15.999 10.889 15.934 11.227 15.804C11.5737 15.674 11.9637 15.4573 12.397 15.154C12.5703 15.0413 12.7133 14.985 12.826 14.985C12.9473 14.985 13.0513 15.0413 13.138 15.154C13.2247 15.258 13.268 15.388 13.268 15.544C13.268 15.7607 13.1857 15.934 13.021 16.064C12.6397 16.402 12.1933 16.662 11.682 16.844C11.1707 17.0173 10.629 17.104 10.057 17.104ZM17.2459 10.5C18.0866 10.5 18.7106 10.7123 19.1179 11.137C19.5339 11.5617 19.7419 12.2073 19.7419 13.074V16.441C19.7419 16.6403 19.6856 16.7963 19.5729 16.909C19.4602 17.013 19.3042 17.065 19.1049 17.065C18.9142 17.065 18.7626 17.0087 18.6499 16.896C18.5372 16.7833 18.4809 16.6317 18.4809 16.441V15.96C18.3162 16.324 18.0692 16.6057 17.7399 16.805C17.4192 16.9957 17.0422 17.091 16.6089 17.091C16.1929 17.091 15.8116 17.0087 15.4649 16.844C15.1269 16.6707 14.8582 16.4367 14.6589 16.142C14.4596 15.8473 14.3599 15.5137 14.3599 15.141C14.3512 14.673 14.4682 14.309 14.7109 14.049C14.9536 13.7803 15.3479 13.5897 15.8939 13.477C16.4399 13.3557 17.1982 13.295 18.1689 13.295H18.4679V12.918C18.4679 12.4327 18.3682 12.0817 18.1689 11.865C17.9696 11.6483 17.6489 11.54 17.2069 11.54C16.9036 11.54 16.6176 11.579 16.3489 11.657C16.0802 11.735 15.7856 11.8477 15.4649 11.995C15.2309 12.125 15.0662 12.19 14.9709 12.19C14.8409 12.19 14.7326 12.1423 14.6459 12.047C14.5679 11.9517 14.5289 11.8303 14.5289 11.683C14.5289 11.553 14.5636 11.4403 14.6329 11.345C14.7109 11.241 14.8322 11.1413 14.9969 11.046C15.3002 10.8813 15.6556 10.7513 16.0629 10.656C16.4702 10.552 16.8646 10.5 17.2459 10.5ZM16.8429 16.116C17.3196 16.116 17.7096 15.9557 18.0129 15.635C18.3162 15.3057 18.4679 14.8853 18.4679 14.374V14.036H18.2339C17.5579 14.036 17.0379 14.0663 16.6739 14.127C16.3099 14.1877 16.0499 14.2917 15.8939 14.439C15.7379 14.5777 15.6599 14.7813 15.6599 15.05C15.6599 15.362 15.7726 15.6177 15.9979 15.817C16.2232 16.0163 16.5049 16.116 16.8429 16.116Z" fill="white"/>
</svg>
