<svg width="21" height="21" viewBox="0 0 21 21" fill="none" xmlns="http://www.w3.org/2000/svg">
<circle opacity="0.4" cx="10.5" cy="10.5" r="10" stroke="black"/>
<path opacity="0.4" d="M10.44 13.944C10.088 13.944 9.912 13.7413 9.912 13.336C9.912 12.8133 10.008 12.328 10.2 11.88C10.4027 11.4213 10.744 10.9147 11.224 10.36C11.5973 9.93333 11.8587 9.57067 12.008 9.272C12.1573 8.96267 12.232 8.63733 12.232 8.296C12.232 7.89067 12.088 7.57067 11.8 7.336C11.512 7.10133 11.1067 6.984 10.584 6.984C10.1253 6.984 9.704 7.05333 9.32 7.192C8.936 7.32 8.56267 7.50667 8.2 7.752C7.95467 7.90133 7.736 7.95467 7.544 7.912C7.36267 7.86933 7.22933 7.77333 7.144 7.624C7.06933 7.464 7.05333 7.288 7.096 7.096C7.14933 6.89333 7.29333 6.712 7.528 6.552C7.95467 6.24267 8.45067 6.00267 9.016 5.832C9.58133 5.66133 10.136 5.576 10.68 5.576C11.64 5.576 12.4133 5.816 13 6.296C13.5867 6.76533 13.88 7.384 13.88 8.152C13.88 8.65333 13.768 9.12267 13.544 9.56C13.3307 9.98667 12.952 10.4667 12.408 11C11.9067 11.5013 11.5547 11.9387 11.352 12.312C11.1493 12.6747 11.0267 13.064 10.984 13.48C10.952 13.7893 10.7707 13.944 10.44 13.944ZM10.424 17.064C10.104 17.064 9.848 16.968 9.656 16.776C9.47467 16.584 9.384 16.3387 9.384 16.04C9.384 15.7413 9.47467 15.5013 9.656 15.32C9.848 15.128 10.104 15.032 10.424 15.032C10.7333 15.032 10.9787 15.128 11.16 15.32C11.3413 15.5013 11.432 15.7413 11.432 16.04C11.432 16.3387 11.3413 16.584 11.16 16.776C10.9787 16.968 10.7333 17.064 10.424 17.064Z" fill="black"/>
</svg>
