<svg width="25" height="25" viewBox="0 0 25 25" fill="none" xmlns="http://www.w3.org/2000/svg">
<g opacity="0.1">
<path d="M13.9648 1.46484H15.4297C15.8342 1.46484 16.1621 1.13697 16.1621 0.732422C16.1621 0.327873 15.8342 0 15.4297 0H13.9648C12.7533 0 11.7676 0.985718 11.7676 2.19727V2.94743C6.81725 3.19061 2.97852 5.99174 2.97852 10.9863C2.97852 11.3909 3.30639 11.7188 3.71094 11.7188H4.44336V15.7486C4.44336 19.3762 6.90136 22.5243 10.4206 23.4041C10.5778 23.4434 10.7212 23.5247 10.8356 23.6391L11.9822 24.7854C12.1195 24.9229 12.3056 25 12.5 25C12.6944 25 12.8805 24.9229 13.0178 24.7854L14.1642 23.6391C14.2788 23.5245 14.4222 23.4432 14.5794 23.4039C18.0986 22.5243 20.5566 19.3762 20.5566 15.7486V11.7188H21.2891C21.6936 11.7188 22.0215 11.3909 22.0215 10.9863C22.0215 5.99098 18.1822 3.19061 13.2324 2.94743V2.19727C13.2324 1.79348 13.5611 1.46484 13.9648 1.46484Z" fill="black"/>
<path opacity="0.5" d="M13.8694 20.5614C16.0819 20.0083 17.627 18.0292 17.627 15.7488C17.627 15.3444 17.2992 15.0164 16.8946 15.0164C16.4901 15.0164 16.1622 15.3444 16.1622 15.7488C16.1622 17.3559 15.0733 18.7506 13.514 19.1402C13.1217 19.2385 12.8831 19.6362 12.9811 20.0285C13.0788 20.4193 13.4753 20.6598 13.8694 20.5614Z" fill="white"/>
</g>
</svg>
