<svg width="25" height="25" viewBox="0 0 25 25" fill="none" xmlns="http://www.w3.org/2000/svg">
<path d="M24.3839 12.2559C23.9977 11.8701 23.4841 11.6516 22.9384 11.6414L22.389 11.631L22.2456 11.1006C21.3975 7.9645 19.1081 5.50477 16.2091 4.35649C16.5566 4.97269 16.7552 5.68346 16.7552 6.43985C16.7552 8.78618 14.8463 10.6951 12.5 10.6951C10.1536 10.6951 8.24473 8.78618 8.24473 6.43985H9.70863C9.70863 7.97899 10.9608 9.2312 12.5 9.2312C14.0391 9.2312 15.2913 7.97899 15.2913 6.43985C15.2913 4.90072 14.0391 3.6485 12.5 3.6485C12.3577 3.6485 12.2159 3.65153 12.0748 3.65743H11.9426C10.5692 3.65358 9.45318 2.53536 9.45318 1.16121H7.98929C7.98929 2.10678 8.32286 2.9757 8.87796 3.65743H8.16925C6.7927 3.65743 5.67282 2.53756 5.67282 1.16101H4.20893C4.20893 3.07632 5.57572 4.67816 7.38509 5.04306C5.16315 6.35021 3.45991 8.4914 2.75436 11.1006L2.61095 11.631L2.06155 11.6414C1.51581 11.6516 1.00228 11.8701 0.615469 12.2564C0.218754 12.6535 0 13.182 0 13.7437C0 14.8814 0.924887 15.8246 2.06165 15.846L2.611 15.8564L2.75441 16.3868C3.94094 20.7745 7.94844 23.8389 12.5 23.8389C17.0515 23.8389 21.059 20.7745 22.2455 16.3868L22.389 15.8564L22.9383 15.846C24.0751 15.8246 24.9999 14.8814 24.9999 13.7437C25 13.182 24.7812 12.6535 24.3839 12.2559ZM7.77429 12.9148C7.13559 12.9148 6.61596 13.4344 6.61596 14.0731H5.15207C5.15207 12.6272 6.3284 11.4509 7.77429 11.4509C9.22017 11.4509 10.3965 12.6272 10.3965 14.0731H8.93262C8.93267 13.4344 8.41303 12.9148 7.77429 12.9148ZM12.5 20.4481C10.9108 20.4481 9.42107 19.5965 8.61212 18.2256L9.87288 17.4817C10.4198 18.4085 11.4265 18.9842 12.5 18.9842C13.5736 18.9842 14.5803 18.4085 15.1272 17.4817L16.3879 18.2256C15.579 19.5965 14.0892 20.4481 12.5 20.4481ZM18.384 14.0731C18.384 13.4344 17.8644 12.9148 17.2257 12.9148C16.587 12.9148 16.0674 13.4344 16.0674 14.0731H14.6035C14.6035 12.6272 15.7798 11.4509 17.2257 11.4509C18.6716 11.4509 19.8479 12.6272 19.8479 14.0731H18.384Z" fill="#30BE58"/>
</svg>
