<svg width="30" height="23" viewBox="0 0 30 23" fill="none" xmlns="http://www.w3.org/2000/svg">
<path d="M26.7188 0H3.28125C1.47199 0 0 1.64149 0 3.65909V19.3409C0 21.3585 1.47199 23 3.28125 23H26.7188C28.528 23 30 21.3585 30 19.3409V3.65909C30 1.64149 28.528 0 26.7188 0ZM3.28125 2.09091H26.7188C27.4941 2.09091 28.125 2.79443 28.125 3.65909V5.75H1.875V3.65909C1.875 2.79443 2.50588 2.09091 3.28125 2.09091ZM26.7188 20.9091H3.28125C2.50588 20.9091 1.875 20.2056 1.875 19.3409V7.84091H28.125V19.3409C28.125 20.2056 27.4941 20.9091 26.7188 20.9091Z" fill="#1A1A1A"/>
<path d="M6.5625 17.7727H5.625C5.10727 17.7727 4.6875 17.3046 4.6875 16.7273V15.6818C4.6875 15.1045 5.10727 14.6364 5.625 14.6364H6.5625C7.08023 14.6364 7.5 15.1045 7.5 15.6818V16.7273C7.5 17.3046 7.08023 17.7727 6.5625 17.7727Z" fill="#1A1A1A"/>
</svg>
