<svg width="30" height="23" viewBox="0 0 30 23" fill="none" xmlns="http://www.w3.org/2000/svg">
<path d="M25.5469 0H4.45312C1.99764 0 0 1.96035 0 4.37V18.63C0 21.0397 1.99764 23 4.45312 23H25.5469C28.0024 23 30 21.0397 30 18.63V13.8V9.2V4.37C30 1.96035 28.0024 0 25.5469 0ZM25.5469 21.16H4.45312C3.03152 21.16 1.875 20.0251 1.875 18.63V4.37C1.875 2.97494 3.03152 1.84 4.45312 1.84H25.5469C26.9685 1.84 28.125 2.97494 28.125 4.37V8.28H22.9688C21.1595 8.28 19.6875 9.72452 19.6875 11.5C19.6875 13.2755 21.1595 14.72 22.9688 14.72H28.125V18.63C28.125 20.0251 26.9685 21.16 25.5469 21.16Z" fill="#1A1A1A"/>
</svg>
