<svg width="138" height="79" viewBox="0 0 138 79" fill="none" xmlns="http://www.w3.org/2000/svg">
<rect width="138" height="79" rx="10" fill="white"/>
<path d="M28.488 59.126C27.5173 59.126 26.6867 58.9207 25.996 58.51C25.3053 58.0993 24.7733 57.516 24.4 56.76C24.036 56.004 23.854 55.1033 23.854 54.058C23.854 53.022 24.036 52.126 24.4 51.37C24.7733 50.614 25.3053 50.0307 25.996 49.62C26.6867 49.2093 27.5173 49.004 28.488 49.004C29.0667 49.004 29.6173 49.088 30.14 49.256C30.6627 49.424 31.1153 49.662 31.498 49.97C31.6567 50.082 31.7453 50.2127 31.764 50.362C31.792 50.5113 31.7687 50.6467 31.694 50.768C31.6193 50.88 31.512 50.9547 31.372 50.992C31.2413 51.02 31.092 50.9733 30.924 50.852C30.2613 50.32 29.4587 50.054 28.516 50.054C27.4053 50.054 26.556 50.404 25.968 51.104C25.38 51.804 25.086 52.7887 25.086 54.058C25.086 55.3367 25.38 56.326 25.968 57.026C26.556 57.726 27.4053 58.076 28.516 58.076C29.4587 58.076 30.2707 57.8053 30.952 57.264C31.12 57.152 31.2693 57.11 31.4 57.138C31.54 57.166 31.6427 57.236 31.708 57.348C31.7827 57.46 31.8107 57.586 31.792 57.726C31.7733 57.866 31.694 57.992 31.554 58.104C31.1527 58.44 30.6907 58.6967 30.168 58.874C29.6453 59.042 29.0853 59.126 28.488 59.126ZM35.6259 59.126C35.1593 59.126 34.7393 59.0373 34.3659 58.86C34.0019 58.6733 33.7126 58.4213 33.4979 58.104C33.2833 57.7867 33.1759 57.432 33.1759 57.04C33.1759 56.5453 33.3019 56.1533 33.5539 55.864C33.8153 55.5747 34.2399 55.3693 34.8279 55.248C35.4253 55.1173 36.2373 55.052 37.2639 55.052H37.7119V54.618C37.7119 54.0393 37.5906 53.624 37.3479 53.372C37.1146 53.1107 36.7366 52.98 36.2139 52.98C35.8873 52.98 35.5559 53.022 35.2199 53.106C34.8933 53.19 34.5526 53.3253 34.1979 53.512C34.0393 53.596 33.9039 53.6147 33.7919 53.568C33.6893 53.512 33.6146 53.428 33.5679 53.316C33.5306 53.1947 33.5306 53.0733 33.5679 52.952C33.6146 52.8213 33.7079 52.7233 33.8479 52.658C34.2493 52.4527 34.6506 52.3033 35.0519 52.21C35.4626 52.1167 35.8499 52.07 36.2139 52.07C37.0913 52.07 37.7399 52.2847 38.1599 52.714C38.5893 53.1433 38.8039 53.8107 38.8039 54.716V58.51C38.8039 58.902 38.6313 59.098 38.2859 59.098C37.9219 59.098 37.7399 58.902 37.7399 58.51V57.824C37.5626 58.2253 37.2873 58.5427 36.9139 58.776C36.5499 59.0093 36.1206 59.126 35.6259 59.126ZM35.8079 58.272C36.3679 58.272 36.8253 58.0807 37.1799 57.698C37.5346 57.306 37.7119 56.8113 37.7119 56.214V55.794H37.2779C36.5219 55.794 35.9246 55.8313 35.4859 55.906C35.0566 55.9713 34.7533 56.0927 34.5759 56.27C34.4079 56.438 34.3239 56.6713 34.3239 56.97C34.3239 57.3527 34.4546 57.6653 34.7159 57.908C34.9866 58.1507 35.3506 58.272 35.8079 58.272ZM43.2038 59.126C42.7838 59.126 42.3591 59.0747 41.9298 58.972C41.5098 58.86 41.1178 58.6827 40.7538 58.44C40.5858 58.3373 40.5018 58.2067 40.5018 58.048C40.5111 57.88 40.5764 57.7493 40.6978 57.656C40.8191 57.5627 40.9731 57.5627 41.1598 57.656C41.5238 57.88 41.8738 58.0387 42.2098 58.132C42.5551 58.216 42.8958 58.258 43.2318 58.258C43.7638 58.258 44.1651 58.16 44.4358 57.964C44.7064 57.768 44.8418 57.502 44.8418 57.166C44.8418 56.9047 44.7531 56.6993 44.5758 56.55C44.3984 56.3913 44.1184 56.27 43.7358 56.186L42.4618 55.906C41.3044 55.654 40.7258 55.0567 40.7258 54.114C40.7258 53.498 40.9684 53.0033 41.4538 52.63C41.9484 52.2567 42.5924 52.07 43.3858 52.07C43.7871 52.07 44.1744 52.126 44.5478 52.238C44.9211 52.3407 45.2571 52.5087 45.5558 52.742C45.7144 52.854 45.7844 52.9893 45.7658 53.148C45.7471 53.3067 45.6724 53.4327 45.5418 53.526C45.4204 53.61 45.2711 53.596 45.0938 53.484C44.8138 53.2973 44.5291 53.162 44.2398 53.078C43.9504 52.9847 43.6658 52.938 43.3858 52.938C42.8631 52.938 42.4664 53.0407 42.1958 53.246C41.9251 53.4513 41.7898 53.722 41.7898 54.058C41.7898 54.5807 42.1351 54.9167 42.8258 55.066L44.0998 55.332C44.6971 55.4627 45.1498 55.6727 45.4578 55.962C45.7658 56.242 45.9198 56.6247 45.9198 57.11C45.9198 57.7353 45.6724 58.23 45.1778 58.594C44.6831 58.9487 44.0251 59.126 43.2038 59.126ZM48.208 59.098C47.8347 59.098 47.648 58.902 47.648 58.51V49.606C47.648 49.2233 47.8347 49.032 48.208 49.032C48.5907 49.032 48.782 49.2233 48.782 49.606V53.316C49.006 52.9053 49.3187 52.5973 49.72 52.392C50.1307 52.1773 50.588 52.07 51.092 52.07C52.7067 52.07 53.514 52.966 53.514 54.758V58.51C53.514 58.902 53.3273 59.098 52.954 59.098C52.5713 59.098 52.38 58.902 52.38 58.51V54.828C52.38 54.1933 52.254 53.7313 52.002 53.442C51.7593 53.1433 51.3673 52.994 50.826 52.994C50.2007 52.994 49.7013 53.19 49.328 53.582C48.964 53.9647 48.782 54.478 48.782 55.122V58.51C48.782 58.902 48.5907 59.098 48.208 59.098ZM59.7744 61.618C59.4011 61.618 59.2144 61.4267 59.2144 61.044V52.672C59.2144 52.2893 59.3964 52.098 59.7604 52.098C60.1431 52.098 60.3344 52.2893 60.3344 52.672V53.4C60.5304 52.9893 60.8337 52.6673 61.2444 52.434C61.6551 52.1913 62.1264 52.07 62.6584 52.07C63.2651 52.07 63.7924 52.2147 64.2404 52.504C64.6977 52.784 65.0477 53.19 65.2904 53.722C65.5424 54.2447 65.6684 54.87 65.6684 55.598C65.6684 56.3167 65.5424 56.942 65.2904 57.474C65.0477 57.9967 64.6977 58.4027 64.2404 58.692C63.7924 58.9813 63.2651 59.126 62.6584 59.126C62.1357 59.126 61.6691 59.0093 61.2584 58.776C60.8477 58.5427 60.5444 58.2207 60.3484 57.81V61.044C60.3484 61.4267 60.1571 61.618 59.7744 61.618ZM62.4204 58.216C63.0551 58.216 63.5637 57.992 63.9464 57.544C64.3291 57.0867 64.5204 56.438 64.5204 55.598C64.5204 54.7487 64.3291 54.1 63.9464 53.652C63.5637 53.204 63.0551 52.98 62.4204 52.98C61.7857 52.98 61.2771 53.204 60.8944 53.652C60.5117 54.1 60.3204 54.7487 60.3204 55.598C60.3204 56.438 60.5117 57.0867 60.8944 57.544C61.2771 57.992 61.7857 58.216 62.4204 58.216ZM69.5185 59.126C69.0518 59.126 68.6318 59.0373 68.2585 58.86C67.8945 58.6733 67.6052 58.4213 67.3905 58.104C67.1758 57.7867 67.0685 57.432 67.0685 57.04C67.0685 56.5453 67.1945 56.1533 67.4465 55.864C67.7078 55.5747 68.1325 55.3693 68.7205 55.248C69.3178 55.1173 70.1298 55.052 71.1565 55.052H71.6045V54.618C71.6045 54.0393 71.4832 53.624 71.2405 53.372C71.0072 53.1107 70.6292 52.98 70.1065 52.98C69.7798 52.98 69.4485 53.022 69.1125 53.106C68.7858 53.19 68.4452 53.3253 68.0905 53.512C67.9318 53.596 67.7965 53.6147 67.6845 53.568C67.5818 53.512 67.5072 53.428 67.4605 53.316C67.4232 53.1947 67.4232 53.0733 67.4605 52.952C67.5072 52.8213 67.6005 52.7233 67.7405 52.658C68.1418 52.4527 68.5432 52.3033 68.9445 52.21C69.3552 52.1167 69.7425 52.07 70.1065 52.07C70.9838 52.07 71.6325 52.2847 72.0525 52.714C72.4818 53.1433 72.6965 53.8107 72.6965 54.716V58.51C72.6965 58.902 72.5238 59.098 72.1785 59.098C71.8145 59.098 71.6325 58.902 71.6325 58.51V57.824C71.4552 58.2253 71.1798 58.5427 70.8065 58.776C70.4425 59.0093 70.0132 59.126 69.5185 59.126ZM69.7005 58.272C70.2605 58.272 70.7178 58.0807 71.0725 57.698C71.4272 57.306 71.6045 56.8113 71.6045 56.214V55.794H71.1705C70.4145 55.794 69.8172 55.8313 69.3785 55.906C68.9492 55.9713 68.6458 56.0927 68.4685 56.27C68.3005 56.438 68.2165 56.6713 68.2165 56.97C68.2165 57.3527 68.3472 57.6653 68.6085 57.908C68.8792 58.1507 69.2432 58.272 69.7005 58.272ZM76.244 61.618C76.0293 61.618 75.8846 61.534 75.81 61.366C75.7353 61.2073 75.74 61.0253 75.824 60.82L76.678 58.888L74.102 52.896C74.0086 52.6813 74.004 52.4947 74.088 52.336C74.1813 52.1773 74.354 52.098 74.606 52.098C74.8673 52.098 75.0586 52.2473 75.18 52.546L77.294 57.712L79.422 52.546C79.4966 52.378 79.576 52.2613 79.66 52.196C79.744 52.1307 79.8653 52.098 80.024 52.098C80.2386 52.098 80.3833 52.1773 80.458 52.336C80.5326 52.4947 80.528 52.6767 80.444 52.882L76.86 61.17C76.7853 61.338 76.7013 61.4547 76.608 61.52C76.524 61.5853 76.4026 61.618 76.244 61.618ZM82.5114 59.098C82.138 59.098 81.9514 58.902 81.9514 58.51V52.672C81.9514 52.2893 82.1334 52.098 82.4974 52.098C82.8707 52.098 83.0574 52.2893 83.0574 52.672V53.344C83.2627 52.9333 83.5474 52.6207 83.9114 52.406C84.2754 52.182 84.7 52.07 85.1854 52.07C86.2494 52.07 86.9307 52.532 87.2294 53.456C87.4347 53.0267 87.738 52.6907 88.1394 52.448C88.5407 52.196 89.0027 52.07 89.5254 52.07C91.0374 52.07 91.7934 52.966 91.7934 54.758V58.51C91.7934 58.902 91.602 59.098 91.2194 59.098C90.846 59.098 90.6594 58.902 90.6594 58.51V54.814C90.6594 54.1887 90.5474 53.7313 90.3234 53.442C90.1087 53.1433 89.7494 52.994 89.2454 52.994C88.6947 52.994 88.256 53.19 87.9294 53.582C87.6027 53.974 87.4394 54.4967 87.4394 55.15V58.51C87.4394 58.902 87.248 59.098 86.8654 59.098C86.492 59.098 86.3054 58.902 86.3054 58.51V54.814C86.3054 54.1887 86.1934 53.7313 85.9694 53.442C85.7547 53.1433 85.3954 52.994 84.8914 52.994C84.3314 52.994 83.888 53.19 83.5614 53.582C83.244 53.974 83.0854 54.4967 83.0854 55.15V58.51C83.0854 58.902 82.894 59.098 82.5114 59.098ZM96.9796 59.126C95.9063 59.126 95.0569 58.8133 94.4316 58.188C93.8063 57.5533 93.4936 56.6947 93.4936 55.612C93.4936 54.912 93.6336 54.296 93.9136 53.764C94.1936 53.2227 94.5763 52.8073 95.0616 52.518C95.5563 52.2193 96.1256 52.07 96.7696 52.07C97.6936 52.07 98.4169 52.3687 98.9396 52.966C99.4623 53.554 99.7236 54.366 99.7236 55.402C99.7236 55.6913 99.5603 55.836 99.2336 55.836H94.5996C94.6369 56.6107 94.8609 57.2033 95.2716 57.614C95.6823 58.0153 96.2516 58.216 96.9796 58.216C97.2876 58.216 97.6003 58.1787 97.9176 58.104C98.2349 58.02 98.5429 57.8753 98.8416 57.67C99.0563 57.53 99.2336 57.502 99.3736 57.586C99.5229 57.67 99.5976 57.8007 99.5976 57.978C99.6069 58.146 99.5136 58.2953 99.3176 58.426C99.0096 58.65 98.6409 58.8227 98.2116 58.944C97.7916 59.0653 97.3809 59.126 96.9796 59.126ZM96.7976 52.91C96.1536 52.91 95.6449 53.1107 95.2716 53.512C94.8983 53.9133 94.6789 54.4407 94.6136 55.094H98.7436C98.7156 54.4033 98.5336 53.8667 98.1976 53.484C97.8709 53.1013 97.4043 52.91 96.7976 52.91ZM101.925 59.098C101.551 59.098 101.365 58.902 101.365 58.51V52.672C101.365 52.2893 101.547 52.098 101.911 52.098C102.284 52.098 102.471 52.2893 102.471 52.672V53.358C102.695 52.9287 103.012 52.6067 103.423 52.392C103.833 52.1773 104.295 52.07 104.809 52.07C106.423 52.07 107.231 52.966 107.231 54.758V58.51C107.231 58.902 107.044 59.098 106.671 59.098C106.288 59.098 106.097 58.902 106.097 58.51V54.828C106.097 54.1933 105.971 53.7313 105.719 53.442C105.476 53.1433 105.084 52.994 104.543 52.994C103.917 52.994 103.418 53.19 103.045 53.582C102.681 53.9647 102.499 54.478 102.499 55.122V58.51C102.499 58.902 102.307 59.098 101.925 59.098ZM112.052 59.126C111.249 59.126 110.647 58.916 110.246 58.496C109.844 58.0667 109.644 57.4507 109.644 56.648V53.078H108.706C108.379 53.078 108.216 52.9287 108.216 52.63C108.216 52.3407 108.379 52.196 108.706 52.196H109.644V50.586C109.644 50.2033 109.835 50.012 110.218 50.012C110.591 50.012 110.778 50.2033 110.778 50.586V52.196H112.542C112.868 52.196 113.032 52.3407 113.032 52.63C113.032 52.9287 112.868 53.078 112.542 53.078H110.778V56.536C110.778 57.068 110.89 57.474 111.114 57.754C111.338 58.0247 111.702 58.16 112.206 58.16C112.383 58.16 112.532 58.1413 112.654 58.104C112.775 58.0667 112.882 58.048 112.976 58.048C113.06 58.0387 113.13 58.0667 113.186 58.132C113.242 58.1973 113.27 58.3093 113.27 58.468C113.27 58.58 113.246 58.6827 113.2 58.776C113.162 58.8693 113.092 58.9347 112.99 58.972C112.878 59.0093 112.728 59.042 112.542 59.07C112.364 59.1073 112.201 59.126 112.052 59.126Z" fill="#1A1A1A"/>
<path d="M79.5469 14H58.4531C55.9976 14 54 15.9603 54 18.37V32.63C54 35.0397 55.9976 37 58.4531 37H79.5469C82.0024 37 84 35.0397 84 32.63V27.8V23.2V18.37C84 15.9603 82.0024 14 79.5469 14ZM79.5469 35.16H58.4531C57.0315 35.16 55.875 34.0251 55.875 32.63V18.37C55.875 16.9749 57.0315 15.84 58.4531 15.84H79.5469C80.9685 15.84 82.125 16.9749 82.125 18.37V22.28H76.9688C75.1595 22.28 73.6875 23.7245 73.6875 25.5C73.6875 27.2755 75.1595 28.72 76.9688 28.72H82.125V32.63C82.125 34.0251 80.9685 35.16 79.5469 35.16Z" fill="#1A1A1A"/>
</svg>
