<svg width="138" height="79" viewBox="0 0 138 79" fill="none" xmlns="http://www.w3.org/2000/svg">
<rect width="138" height="79" rx="10" fill="white"/>
<path d="M17.792 59.098C17.4093 59.098 17.218 58.8973 17.218 58.496V49.718C17.218 49.326 17.414 49.13 17.806 49.13H21.124C22.188 49.13 23 49.3867 23.56 49.9C24.1293 50.4133 24.414 51.146 24.414 52.098C24.414 53.0407 24.1293 53.7733 23.56 54.296C23 54.8093 22.188 55.066 21.124 55.066H18.366V58.496C18.366 58.8973 18.1747 59.098 17.792 59.098ZM18.366 54.1H20.984C22.5147 54.1 23.28 53.4327 23.28 52.098C23.28 50.754 22.5147 50.082 20.984 50.082H18.366V54.1ZM27.7236 59.126C27.2569 59.126 26.8369 59.0373 26.4636 58.86C26.0996 58.6733 25.8102 58.4213 25.5956 58.104C25.3809 57.7867 25.2736 57.432 25.2736 57.04C25.2736 56.5453 25.3996 56.1533 25.6516 55.864C25.9129 55.5747 26.3376 55.3693 26.9256 55.248C27.5229 55.1173 28.3349 55.052 29.3616 55.052H29.8096V54.618C29.8096 54.0393 29.6882 53.624 29.4456 53.372C29.2122 53.1107 28.8342 52.98 28.3116 52.98C27.9849 52.98 27.6536 53.022 27.3176 53.106C26.9909 53.19 26.6502 53.3253 26.2956 53.512C26.1369 53.596 26.0016 53.6147 25.8896 53.568C25.7869 53.512 25.7122 53.428 25.6656 53.316C25.6282 53.1947 25.6282 53.0733 25.6656 52.952C25.7122 52.8213 25.8056 52.7233 25.9456 52.658C26.3469 52.4527 26.7482 52.3033 27.1496 52.21C27.5602 52.1167 27.9476 52.07 28.3116 52.07C29.1889 52.07 29.8376 52.2847 30.2576 52.714C30.6869 53.1433 30.9016 53.8107 30.9016 54.716V58.51C30.9016 58.902 30.7289 59.098 30.3836 59.098C30.0196 59.098 29.8376 58.902 29.8376 58.51V57.824C29.6602 58.2253 29.3849 58.5427 29.0116 58.776C28.6476 59.0093 28.2182 59.126 27.7236 59.126ZM27.9056 58.272C28.4656 58.272 28.9229 58.0807 29.2776 57.698C29.6322 57.306 29.8096 56.8113 29.8096 56.214V55.794H29.3756C28.6196 55.794 28.0222 55.8313 27.5836 55.906C27.1542 55.9713 26.8509 56.0927 26.6736 56.27C26.5056 56.438 26.4216 56.6713 26.4216 56.97C26.4216 57.3527 26.5522 57.6653 26.8136 57.908C27.0842 58.1507 27.4482 58.272 27.9056 58.272ZM34.449 61.618C34.2344 61.618 34.0897 61.534 34.015 61.366C33.9404 61.2073 33.945 61.0253 34.029 60.82L34.883 58.888L32.307 52.896C32.2137 52.6813 32.209 52.4947 32.293 52.336C32.3864 52.1773 32.559 52.098 32.811 52.098C33.0724 52.098 33.2637 52.2473 33.385 52.546L35.499 57.712L37.627 52.546C37.7017 52.378 37.781 52.2613 37.865 52.196C37.949 52.1307 38.0704 52.098 38.229 52.098C38.4437 52.098 38.5884 52.1773 38.663 52.336C38.7377 52.4947 38.733 52.6767 38.649 52.882L35.065 61.17C34.9904 61.338 34.9064 61.4547 34.813 61.52C34.729 61.5853 34.6077 61.618 34.449 61.618ZM40.7165 59.098C40.3431 59.098 40.1565 58.902 40.1565 58.51V52.672C40.1565 52.2893 40.3385 52.098 40.7025 52.098C41.0758 52.098 41.2625 52.2893 41.2625 52.672V53.344C41.4678 52.9333 41.7525 52.6207 42.1165 52.406C42.4805 52.182 42.9051 52.07 43.3905 52.07C44.4545 52.07 45.1358 52.532 45.4345 53.456C45.6398 53.0267 45.9431 52.6907 46.3445 52.448C46.7458 52.196 47.2078 52.07 47.7305 52.07C49.2425 52.07 49.9985 52.966 49.9985 54.758V58.51C49.9985 58.902 49.8071 59.098 49.4245 59.098C49.0511 59.098 48.8645 58.902 48.8645 58.51V54.814C48.8645 54.1887 48.7525 53.7313 48.5285 53.442C48.3138 53.1433 47.9545 52.994 47.4505 52.994C46.8998 52.994 46.4611 53.19 46.1345 53.582C45.8078 53.974 45.6445 54.4967 45.6445 55.15V58.51C45.6445 58.902 45.4531 59.098 45.0705 59.098C44.6971 59.098 44.5105 58.902 44.5105 58.51V54.814C44.5105 54.1887 44.3985 53.7313 44.1745 53.442C43.9598 53.1433 43.6005 52.994 43.0965 52.994C42.5365 52.994 42.0931 53.19 41.7665 53.582C41.4491 53.974 41.2905 54.4967 41.2905 55.15V58.51C41.2905 58.902 41.0991 59.098 40.7165 59.098ZM55.1847 59.126C54.1114 59.126 53.262 58.8133 52.6367 58.188C52.0114 57.5533 51.6987 56.6947 51.6987 55.612C51.6987 54.912 51.8387 54.296 52.1187 53.764C52.3987 53.2227 52.7814 52.8073 53.2667 52.518C53.7614 52.2193 54.3307 52.07 54.9747 52.07C55.8987 52.07 56.622 52.3687 57.1447 52.966C57.6674 53.554 57.9287 54.366 57.9287 55.402C57.9287 55.6913 57.7654 55.836 57.4387 55.836H52.8047C52.842 56.6107 53.066 57.2033 53.4767 57.614C53.8874 58.0153 54.4567 58.216 55.1847 58.216C55.4927 58.216 55.8054 58.1787 56.1227 58.104C56.44 58.02 56.748 57.8753 57.0467 57.67C57.2614 57.53 57.4387 57.502 57.5787 57.586C57.728 57.67 57.8027 57.8007 57.8027 57.978C57.812 58.146 57.7187 58.2953 57.5227 58.426C57.2147 58.65 56.846 58.8227 56.4167 58.944C55.9967 59.0653 55.586 59.126 55.1847 59.126ZM55.0027 52.91C54.3587 52.91 53.85 53.1107 53.4767 53.512C53.1034 53.9133 52.884 54.4407 52.8187 55.094H56.9487C56.9207 54.4033 56.7387 53.8667 56.4027 53.484C56.076 53.1013 55.6094 52.91 55.0027 52.91ZM60.1299 59.098C59.7565 59.098 59.5699 58.902 59.5699 58.51V52.672C59.5699 52.2893 59.7519 52.098 60.1159 52.098C60.4892 52.098 60.6759 52.2893 60.6759 52.672V53.358C60.8999 52.9287 61.2172 52.6067 61.6279 52.392C62.0385 52.1773 62.5005 52.07 63.0139 52.07C64.6285 52.07 65.4359 52.966 65.4359 54.758V58.51C65.4359 58.902 65.2492 59.098 64.8759 59.098C64.4932 59.098 64.3019 58.902 64.3019 58.51V54.828C64.3019 54.1933 64.1759 53.7313 63.9239 53.442C63.6812 53.1433 63.2892 52.994 62.7479 52.994C62.1225 52.994 61.6232 53.19 61.2499 53.582C60.8859 53.9647 60.7039 54.478 60.7039 55.122V58.51C60.7039 58.902 60.5125 59.098 60.1299 59.098ZM70.2569 59.126C69.4542 59.126 68.8522 58.916 68.4509 58.496C68.0496 58.0667 67.8489 57.4507 67.8489 56.648V53.078H66.9109C66.5842 53.078 66.4209 52.9287 66.4209 52.63C66.4209 52.3407 66.5842 52.196 66.9109 52.196H67.8489V50.586C67.8489 50.2033 68.0402 50.012 68.4229 50.012C68.7962 50.012 68.9829 50.2033 68.9829 50.586V52.196H70.7469C71.0736 52.196 71.2369 52.3407 71.2369 52.63C71.2369 52.9287 71.0736 53.078 70.7469 53.078H68.9829V56.536C68.9829 57.068 69.0949 57.474 69.3189 57.754C69.5429 58.0247 69.9069 58.16 70.4109 58.16C70.5882 58.16 70.7376 58.1413 70.8589 58.104C70.9802 58.0667 71.0876 58.048 71.1809 58.048C71.2649 58.0387 71.3349 58.0667 71.3909 58.132C71.4469 58.1973 71.4749 58.3093 71.4749 58.468C71.4749 58.58 71.4516 58.6827 71.4049 58.776C71.3676 58.8693 71.2976 58.9347 71.1949 58.972C71.0829 59.0093 70.9336 59.042 70.7469 59.07C70.5696 59.1073 70.4062 59.126 70.2569 59.126ZM79.4748 59.126C78.9428 59.126 78.4715 59.0093 78.0608 58.776C77.6501 58.5333 77.3468 58.202 77.1508 57.782V58.51C77.1508 58.902 76.9641 59.098 76.5908 59.098C76.2175 59.098 76.0308 58.902 76.0308 58.51V49.606C76.0308 49.2233 76.2175 49.032 76.5908 49.032C76.9735 49.032 77.1648 49.2233 77.1648 49.606V53.372C77.3608 52.9707 77.6641 52.6533 78.0748 52.42C78.4855 52.1867 78.9521 52.07 79.4748 52.07C80.0815 52.07 80.6088 52.2147 81.0568 52.504C81.5141 52.784 81.8641 53.19 82.1068 53.722C82.3588 54.2447 82.4848 54.87 82.4848 55.598C82.4848 56.3167 82.3588 56.942 82.1068 57.474C81.8641 57.9967 81.5141 58.4027 81.0568 58.692C80.6088 58.9813 80.0815 59.126 79.4748 59.126ZM79.2368 58.216C79.8715 58.216 80.3801 57.992 80.7628 57.544C81.1455 57.0867 81.3368 56.438 81.3368 55.598C81.3368 54.7487 81.1455 54.1 80.7628 53.652C80.3801 53.204 79.8715 52.98 79.2368 52.98C78.6021 52.98 78.0935 53.204 77.7108 53.652C77.3281 54.1 77.1368 54.7487 77.1368 55.598C77.1368 56.438 77.3281 57.0867 77.7108 57.544C78.0935 57.992 78.6021 58.216 79.2368 58.216ZM85.6092 61.618C85.3945 61.618 85.2499 61.534 85.1752 61.366C85.1005 61.2073 85.1052 61.0253 85.1892 60.82L86.0432 58.888L83.4672 52.896C83.3739 52.6813 83.3692 52.4947 83.4532 52.336C83.5465 52.1773 83.7192 52.098 83.9712 52.098C84.2325 52.098 84.4239 52.2473 84.5452 52.546L86.6592 57.712L88.7872 52.546C88.8619 52.378 88.9412 52.2613 89.0252 52.196C89.1092 52.1307 89.2305 52.098 89.3892 52.098C89.6039 52.098 89.7485 52.1773 89.8232 52.336C89.8979 52.4947 89.8932 52.6767 89.8092 52.882L86.2252 61.17C86.1505 61.338 86.0665 61.4547 85.9732 61.52C85.8892 61.5853 85.7679 61.618 85.6092 61.618ZM97.782 59.126C97.1007 59.126 96.5127 58.9813 96.018 58.692C95.5233 58.3933 95.1407 57.978 94.87 57.446C94.6087 56.9047 94.478 56.2747 94.478 55.556C94.478 54.4733 94.772 53.624 95.36 53.008C95.948 52.3827 96.7553 52.07 97.782 52.07C98.118 52.07 98.468 52.126 98.832 52.238C99.196 52.3407 99.5273 52.5133 99.826 52.756C99.9847 52.868 100.05 53.008 100.022 53.176C100.003 53.344 99.924 53.47 99.784 53.554C99.6533 53.638 99.4993 53.6193 99.322 53.498C99.07 53.3113 98.818 53.1807 98.566 53.106C98.3233 53.0313 98.0853 52.994 97.852 52.994C97.1427 52.994 96.5967 53.218 96.214 53.666C95.8313 54.1047 95.64 54.7393 95.64 55.57C95.64 56.382 95.8313 57.026 96.214 57.502C96.5967 57.9687 97.1427 58.202 97.852 58.202C98.0853 58.202 98.3233 58.1647 98.566 58.09C98.818 58.0153 99.07 57.8847 99.322 57.698C99.4993 57.5767 99.6533 57.5627 99.784 57.656C99.9147 57.74 99.9847 57.866 99.994 58.034C100.013 58.202 99.9473 58.3373 99.798 58.44C99.4993 58.6827 99.1727 58.86 98.818 58.972C98.4633 59.0747 98.118 59.126 97.782 59.126ZM103.466 59.126C102.999 59.126 102.579 59.0373 102.206 58.86C101.842 58.6733 101.552 58.4213 101.338 58.104C101.123 57.7867 101.016 57.432 101.016 57.04C101.016 56.5453 101.142 56.1533 101.394 55.864C101.655 55.5747 102.08 55.3693 102.668 55.248C103.265 55.1173 104.077 55.052 105.104 55.052H105.552V54.618C105.552 54.0393 105.43 53.624 105.188 53.372C104.954 53.1107 104.576 52.98 104.054 52.98C103.727 52.98 103.396 53.022 103.06 53.106C102.733 53.19 102.392 53.3253 102.038 53.512C101.879 53.596 101.744 53.6147 101.632 53.568C101.529 53.512 101.454 53.428 101.408 53.316C101.37 53.1947 101.37 53.0733 101.408 52.952C101.454 52.8213 101.548 52.7233 101.688 52.658C102.089 52.4527 102.49 52.3033 102.892 52.21C103.302 52.1167 103.69 52.07 104.054 52.07C104.931 52.07 105.58 52.2847 106 52.714C106.429 53.1433 106.644 53.8107 106.644 54.716V58.51C106.644 58.902 106.471 59.098 106.126 59.098C105.762 59.098 105.58 58.902 105.58 58.51V57.824C105.402 58.2253 105.127 58.5427 104.754 58.776C104.39 59.0093 103.96 59.126 103.466 59.126ZM103.648 58.272C104.208 58.272 104.665 58.0807 105.02 57.698C105.374 57.306 105.552 56.8113 105.552 56.214V55.794H105.118C104.362 55.794 103.764 55.8313 103.326 55.906C102.896 55.9713 102.593 56.0927 102.416 56.27C102.248 56.438 102.164 56.6713 102.164 56.97C102.164 57.3527 102.294 57.6653 102.556 57.908C102.826 58.1507 103.19 58.272 103.648 58.272ZM109.322 59.098C108.939 59.098 108.748 58.902 108.748 58.51V52.672C108.748 52.2893 108.93 52.098 109.294 52.098C109.667 52.098 109.854 52.2893 109.854 52.672V53.414C110.04 52.9847 110.33 52.658 110.722 52.434C111.114 52.2007 111.58 52.0747 112.122 52.056C112.42 52.028 112.579 52.1773 112.598 52.504C112.626 52.8307 112.458 53.0127 112.094 53.05L111.87 53.078C111.226 53.134 110.736 53.3393 110.4 53.694C110.064 54.0393 109.896 54.5153 109.896 55.122V58.51C109.896 58.902 109.704 59.098 109.322 59.098ZM116.273 59.126C115.666 59.126 115.134 58.9813 114.677 58.692C114.229 58.4027 113.879 57.9967 113.627 57.474C113.384 56.942 113.263 56.3167 113.263 55.598C113.263 54.87 113.384 54.2447 113.627 53.722C113.879 53.19 114.229 52.784 114.677 52.504C115.134 52.2147 115.666 52.07 116.273 52.07C116.805 52.07 117.272 52.1867 117.673 52.42C118.084 52.6533 118.387 52.9753 118.583 53.386V49.606C118.583 49.2233 118.774 49.032 119.157 49.032C119.53 49.032 119.717 49.2233 119.717 49.606V58.51C119.717 58.902 119.53 59.098 119.157 59.098C118.784 59.098 118.597 58.902 118.597 58.51V57.782C118.392 58.202 118.084 58.5333 117.673 58.776C117.272 59.0093 116.805 59.126 116.273 59.126ZM116.511 58.216C117.146 58.216 117.654 57.992 118.037 57.544C118.42 57.0867 118.611 56.438 118.611 55.598C118.611 54.7487 118.42 54.1 118.037 53.652C117.654 53.204 117.146 52.98 116.511 52.98C115.867 52.98 115.354 53.204 114.971 53.652C114.598 54.1 114.411 54.7487 114.411 55.598C114.411 56.438 114.598 57.0867 114.971 57.544C115.354 57.992 115.867 58.216 116.511 58.216Z" fill="#1A1A1A"/>
<path d="M80.7188 14H57.2812C55.472 14 54 15.6415 54 17.6591V33.3409C54 35.3585 55.472 37 57.2812 37H80.7188C82.528 37 84 35.3585 84 33.3409V17.6591C84 15.6415 82.528 14 80.7188 14ZM57.2812 16.0909H80.7188C81.4941 16.0909 82.125 16.7944 82.125 17.6591V19.75H55.875V17.6591C55.875 16.7944 56.5059 16.0909 57.2812 16.0909ZM80.7188 34.9091H57.2812C56.5059 34.9091 55.875 34.2056 55.875 33.3409V21.8409H82.125V33.3409C82.125 34.2056 81.4941 34.9091 80.7188 34.9091Z" fill="#1A1A1A"/>
<path d="M60.5625 31.7727H59.625C59.1073 31.7727 58.6875 31.3046 58.6875 30.7273V29.6818C58.6875 29.1045 59.1073 28.6364 59.625 28.6364H60.5625C61.0802 28.6364 61.5 29.1045 61.5 29.6818V30.7273C61.5 31.3046 61.0802 31.7727 60.5625 31.7727Z" fill="#1A1A1A"/>
</svg>
