<?xml version="1.0" standalone="no"?>
<!DOCTYPE svg PUBLIC "-//W3C//DTD SVG 20010904//EN"
 "http://www.w3.org/TR/2001/REC-SVG-20010904/DTD/svg10.dtd">
<svg version="1.0" xmlns="http://www.w3.org/2000/svg"
 width="960.000000pt" height="960.000000pt" viewBox="0 0 960.000000 960.000000"
 preserveAspectRatio="xMidYMid meet">
<metadata>
Created by potrace 1.14, written by Peter Selinger 2001-2017
</metadata>
<g transform="translate(0.000000,960.000000) scale(0.100000,-0.100000)"
fill="#000000" stroke="none">
<path d="M4410 7833 c-25 -7 -123 -55 -163 -81 -34 -21 -88 -51 -152 -86 -11
-6 -22 -13 -25 -16 -3 -3 -16 -11 -30 -18 -14 -6 -32 -16 -40 -21 -20 -13
-201 -116 -270 -154 -30 -16 -59 -33 -65 -37 -11 -9 -69 -42 -134 -76 -24 -13
-49 -28 -55 -33 -6 -4 -33 -21 -61 -36 -27 -15 -113 -64 -190 -108 -77 -44
-160 -91 -184 -105 -25 -14 -67 -38 -93 -53 -27 -16 -51 -29 -54 -29 -3 0 -18
-8 -32 -19 -15 -10 -47 -29 -72 -43 -25 -14 -63 -36 -85 -48 -22 -13 -51 -30
-65 -37 -14 -8 -38 -22 -55 -32 -16 -10 -55 -31 -85 -48 -30 -17 -95 -54 -143
-82 -49 -28 -93 -51 -98 -51 -5 0 -9 -4 -9 -9 0 -5 -9 -13 -21 -16 -11 -4 -53
-26 -92 -49 -40 -24 -92 -54 -117 -68 -25 -14 -90 -51 -145 -83 -55 -32 -125
-71 -155 -88 -30 -17 -104 -59 -164 -94 -60 -35 -110 -63 -113 -63 -2 0 -16
-8 -31 -19 -15 -10 -61 -40 -102 -66 -41 -27 -79 -52 -85 -57 -5 -5 -39 -30
-75 -56 -36 -26 -75 -56 -86 -67 -12 -11 -42 -36 -65 -55 -120 -95 -349 -343
-465 -500 -50 -69 -134 -196 -134 -203 0 -4 -12 -23 -26 -44 -59 -86 -197
-395 -239 -533 -9 -30 -21 -66 -25 -80 -9 -24 -29 -99 -35 -130 -2 -8 -8 -36
-14 -62 -15 -64 -40 -225 -48 -306 -9 -87 -9 -390 0 -467 4 -33 9 -80 12 -105
2 -25 6 -54 9 -65 2 -11 7 -40 11 -65 29 -189 124 -482 223 -690 20 -41 36
-78 36 -82 1 -3 5 -10 9 -15 5 -4 15 -21 23 -38 37 -80 199 -332 261 -405 11
-14 47 -56 79 -95 109 -131 279 -301 384 -385 17 -14 40 -32 50 -40 45 -36 58
-47 95 -75 74 -56 289 -195 301 -195 7 0 14 -4 16 -8 3 -10 302 -157 388 -192
30 -13 64 -26 75 -31 38 -17 291 -97 320 -102 17 -3 44 -10 60 -16 17 -5 44
-12 62 -15 17 -2 36 -6 40 -9 8 -5 77 -17 116 -20 9 -1 17 -4 17 -7 0 -3 15
-6 33 -6 17 -1 48 -4 67 -8 38 -6 94 -13 180 -24 78 -9 3088 -9 3185 1 138 13
233 25 270 34 11 3 29 6 40 7 37 5 99 18 200 43 55 14 107 26 115 28 30 6 275
87 285 94 6 4 33 16 60 26 121 44 370 167 387 190 4 5 8 7 8 3 0 -4 44 20 98
54 247 156 434 307 617 498 106 111 127 134 154 170 14 19 29 37 32 40 20 17
219 302 219 314 0 8 64 111 73 117 5 3 9 10 9 15 0 5 22 54 48 109 84 174 163
393 196 537 2 10 6 27 9 38 13 53 16 66 19 85 2 11 9 49 16 85 6 36 14 81 16
100 2 19 7 67 11 105 14 127 7 482 -11 567 -3 13 -8 41 -11 63 -9 72 -16 110
-22 125 -3 8 -7 26 -9 40 -5 32 -10 51 -17 70 -3 8 -11 38 -18 65 -6 28 -14
53 -16 58 -2 4 -25 -8 -51 -25 -26 -18 -51 -35 -57 -38 -6 -3 -70 -43 -143
-90 -73 -47 -141 -89 -152 -95 -11 -5 -20 -13 -20 -17 0 -5 -7 -8 -15 -8 -8 0
-15 -4 -15 -9 0 -5 -6 -11 -13 -13 -7 -2 -97 -57 -201 -123 -103 -66 -195
-124 -204 -130 -9 -5 -19 -12 -22 -15 -3 -3 -22 -14 -42 -25 -21 -11 -38 -23
-38 -27 0 -5 -7 -8 -15 -8 -8 0 -15 -4 -15 -9 0 -5 -8 -11 -17 -14 -22 -7 -72
-37 -91 -55 -8 -7 -28 -20 -45 -28 -16 -9 -35 -20 -41 -25 -6 -6 -36 -25 -66
-44 -30 -19 -60 -39 -67 -45 -7 -5 -14 -10 -17 -10 -6 0 -124 -74 -141 -88 -5
-4 -39 -26 -75 -47 -36 -22 -69 -43 -75 -48 -92 -70 -178 -96 -252 -75 -20 5
-63 28 -96 49 -32 21 -61 39 -63 39 -3 0 -44 26 -92 58 -48 31 -96 62 -107 69
-11 7 -74 47 -140 88 -66 42 -129 82 -140 88 -11 7 -22 14 -25 18 -3 3 -52 35
-110 71 -266 166 -305 192 -308 200 -2 4 -8 8 -12 8 -11 0 -204 123 -208 132
-2 5 -7 8 -12 8 -10 0 -179 106 -202 127 -10 9 -18 13 -18 10 0 -3 -74 43
-165 104 -91 60 -165 114 -165 119 0 6 -4 9 -9 7 -16 -4 -210 175 -276 254
-78 95 -115 145 -115 156 0 7 -4 13 -9 13 -19 0 -148 231 -204 365 -40 96 -88
248 -102 325 -3 14 -7 34 -10 46 -3 12 -7 36 -10 55 -2 19 -9 61 -14 94 -15
94 -5 482 13 544 3 9 8 32 11 51 3 19 10 51 15 70 5 19 11 46 14 60 23 115
164 448 212 501 8 8 14 20 14 25 0 6 9 20 20 32 12 12 18 22 15 22 -5 0 91
129 140 189 11 13 62 65 113 116 l93 93 -195 111 c-107 61 -212 117 -233 125
-36 13 -132 18 -163 9z"/>
<path d="M6477 7653 c-1 0 -33 -4 -72 -6 -38 -3 -82 -8 -97 -11 -16 -3 -38 -8
-50 -10 -13 -2 -43 -10 -68 -17 -25 -7 -47 -13 -50 -14 -108 -24 -359 -155
-458 -240 -92 -78 -235 -233 -256 -276 -5 -11 -13 -19 -18 -19 -4 0 -8 -7 -8
-15 0 -8 -3 -15 -7 -15 -5 0 -13 -10 -19 -23 -7 -12 -32 -61 -57 -109 -39 -76
-61 -131 -54 -134 1 0 -4 -8 -12 -17 -7 -10 -10 -17 -7 -17 4 0 2 -9 -4 -21
-6 -11 -13 -28 -15 -37 -1 -9 -8 -35 -13 -57 -43 -159 -49 -370 -18 -571 14
-94 89 -314 127 -374 5 -8 15 -27 22 -42 6 -16 15 -28 19 -28 4 0 8 -5 8 -11
0 -42 198 -272 310 -360 91 -72 253 -179 270 -179 6 0 10 -4 10 -10 0 -5 7
-10 15 -10 8 0 15 -4 15 -10 0 -5 7 -10 15 -10 8 0 15 -4 15 -10 0 -5 5 -10
10 -10 6 0 56 -30 113 -67 56 -38 107 -70 112 -73 6 -3 55 -33 110 -68 55 -35
109 -69 119 -75 11 -7 25 -15 30 -20 37 -26 88 -57 96 -57 4 0 10 -3 12 -7 4
-11 167 -113 179 -113 5 0 9 -4 9 -8 0 -5 17 -17 38 -28 20 -10 39 -21 42 -24
3 -3 29 -21 59 -40 93 -59 122 -51 331 85 63 42 123 78 133 81 9 4 17 11 17
16 0 5 4 7 9 4 5 -4 11 -2 13 2 4 10 256 172 268 172 4 0 10 3 12 8 2 4 46 34
98 66 52 33 97 62 100 65 3 4 15 12 28 19 12 6 32 18 45 25 12 6 24 15 27 18
3 4 19 15 36 25 17 11 69 43 115 72 46 29 93 59 103 65 11 7 25 16 30 20 6 4
35 26 64 47 30 22 74 59 99 82 24 24 58 55 74 71 16 15 29 30 29 33 0 2 12 17
26 31 47 47 212 312 202 325 -1 2 6 19 14 38 30 68 66 186 73 244 3 17 7 42
10 56 15 68 24 226 14 263 -5 16 -4 27 2 27 6 0 8 3 6 8 -6 8 -14 58 -23 134
-4 29 -10 60 -15 69 -4 9 -6 19 -3 22 3 3 2 12 -2 19 -5 7 -10 22 -11 32 -10
60 -82 229 -139 325 -81 137 -156 228 -278 337 -60 54 -199 154 -215 154 -4 0
-14 7 -21 15 -7 8 -16 12 -21 9 -5 -3 -9 -1 -9 3 0 5 -12 14 -27 20 -91 37
-208 83 -208 82 0 -1 -20 4 -45 11 -25 7 -56 14 -70 16 -14 2 -41 7 -60 10
-19 3 -48 8 -65 11 -26 4 -1234 11 -1238 6z"/>
</g>
</svg>
