<svg width="15" height="15" viewBox="0 0 15 15" fill="none" xmlns="http://www.w3.org/2000/svg">
<path d="M7.5 2.69531C6.19151 2.69531 5.12695 3.75987 5.12695 5.06836C5.12695 6.37685 6.19151 7.44141 7.5 7.44141C8.80849 7.44141 9.87305 6.37685 9.87305 5.06836C9.87305 3.75987 8.80849 2.69531 7.5 2.69531ZM7.5 6.26953C6.83769 6.26953 6.29883 5.73067 6.29883 5.06836C6.29883 4.40604 6.83769 3.86719 7.5 3.86719C8.16231 3.86719 8.70117 4.40604 8.70117 5.06836C8.70117 5.73067 8.16231 6.26953 7.5 6.26953Z" fill="#1A1A1A"/>
<path d="M9.65903 10.8096C9.83106 10.6264 10.0074 10.432 10.1841 10.2281C11.7662 8.40193 12.5684 6.76116 12.5684 5.35134V5.06865C12.5684 2.27379 10.2947 0 7.5 0C4.70528 0 2.43164 2.27379 2.43164 5.06865V5.35134C2.43164 6.76116 3.23385 8.40193 4.81594 10.2281C4.99266 10.432 5.16897 10.6264 5.34103 10.8096C3.70213 10.9885 1.20117 11.4851 1.20117 12.848C1.20117 13.5749 1.90916 14.1376 3.30545 14.5204C4.43353 14.8297 5.92318 15 7.5 15C9.07682 15 10.5665 14.8297 11.6946 14.5204C13.0908 14.1376 13.7988 13.5749 13.7988 12.848C13.7988 11.486 11.3075 10.9891 9.65903 10.8096ZM3.60352 5.35134V5.06865C3.60352 2.91996 5.35148 1.17188 7.5 1.17188C9.64852 1.17188 11.3965 2.91996 11.3965 5.06865V5.35134C11.3965 6.45214 10.6749 7.86861 9.3097 9.44763C8.61545 10.2506 7.91303 10.9089 7.49988 11.2767C7.08961 10.9117 6.39401 10.2599 5.70167 9.46075C4.32905 7.87644 3.60352 6.45542 3.60352 5.35134ZM11.1308 13.4555C10.1326 13.6958 8.84317 13.8281 7.5 13.8281C6.15683 13.8281 4.86744 13.6958 3.86924 13.4555C2.85595 13.2116 2.5091 12.9521 2.40457 12.8479C2.49586 12.757 2.77248 12.5479 3.52236 12.3318C4.29393 12.1094 5.32887 11.9546 6.43717 11.8957C6.83733 12.265 7.10739 12.4861 7.13007 12.5045L7.5 12.8056L7.8699 12.5045C7.89258 12.4861 8.16258 12.2651 8.56269 11.8958C9.66694 11.9546 10.6978 12.1082 11.4687 12.3292C12.2253 12.5462 12.5038 12.7567 12.5954 12.848C12.4908 12.9522 12.1441 13.2116 11.1308 13.4555Z" fill="#1A1A1A"/>
</svg>
