<svg width="15" height="15" viewBox="0 0 15 15" fill="none" xmlns="http://www.w3.org/2000/svg">
<path d="M13.8864 1.06298C13.8326 1.01956 12.5474 0 10.5164 0C9.46165 0 8.40353 0.49866 7.38028 0.980903C6.43183 1.42789 5.53599 1.85008 4.74342 1.85008C3.51967 1.85008 2.50543 1.39567 2.06703 1.16341V0.00500386H0.895508V15H2.067V10.0608C2.7074 10.3383 3.64951 10.6362 4.74339 10.6362C5.7997 10.6362 6.85847 10.1307 7.88236 9.64186C8.83017 9.18929 9.72545 8.76185 10.5164 8.76185C12.0918 8.76185 13.1109 9.53429 13.1513 9.56557L14.104 10.3521V1.23882L13.8864 1.06298ZM12.9325 8.10096C12.3511 7.84225 11.5259 7.59036 10.5164 7.59036C9.4601 7.59036 8.40139 8.09587 7.37753 8.5847C6.42969 9.03727 5.53435 9.46473 4.74336 9.46473C3.54422 9.46473 2.54614 9.01544 2.09626 8.77391V2.47211C2.73509 2.73913 3.6656 3.02157 4.74336 3.02157C5.79815 3.02157 6.85631 2.52291 7.87961 2.04061C8.82798 1.59366 9.72381 1.17149 10.5163 1.17149C11.6859 1.17149 12.5489 1.59726 12.9325 1.82939V8.10096H12.9325Z" fill="#1A1A1A"/>
</svg>
