<svg width="15" height="15" viewBox="0 0 15 15" fill="none" xmlns="http://www.w3.org/2000/svg">
<g clip-path="url(#clip0)">
<path d="M14.6931 2.1433L12.8542 0.306332C12.4458 -0.101744 11.7814 -0.101451 11.3732 0.306918L1.54192 10.1426C1.23472 10.4495 1.00011 10.8295 0.863496 11.2416L0.854736 11.268L0 14.9995L3.73491 14.1464L3.76128 14.1377C4.17366 14.0013 4.55399 13.7671 4.86155 13.4599L14.6937 3.62326C14.8914 3.42551 15.0001 3.16266 15 2.88314C14.9999 2.60367 14.8909 2.34091 14.6931 2.1433ZM1.55883 13.4417L1.90793 11.9175L3.08473 13.0931L1.55883 13.4417ZM4.15661 12.5079L2.49425 10.8472L10.6207 2.71708L12.283 4.37775L4.15661 12.5079ZM13.1113 3.54911L11.4489 1.88845L12.1141 1.22303L13.7764 2.88369L13.1113 3.54911Z" fill="#1A1A1A"/>
</g>
<defs>
<clipPath id="clip0">
<rect width="15" height="15" fill="white"/>
</clipPath>
</defs>
</svg>
