<svg width="15" height="15" viewBox="0 0 15 15" fill="none" xmlns="http://www.w3.org/2000/svg">
<g clip-path="url(#clip0)">
<path d="M14.2697 1.95829L13.0111 0.704086C12.6206 0.314939 11.9889 0.315222 11.5987 0.704717L8.92062 3.37836C8.53399 3.76435 8.5287 4.38919 8.90874 4.78167L9.28657 5.17188C9.59452 5.48992 9.66003 5.97494 9.41194 6.3416C9.09085 6.81616 8.62393 7.42171 7.9849 8.06073C7.34681 8.69884 6.73935 9.16809 6.26193 9.49226C5.89188 9.74352 5.4013 9.67558 5.08299 9.36134L4.72413 9.00705C4.33372 8.62162 3.70567 8.62269 3.31658 9.00947L0.710932 11.5996C0.319336 11.9889 0.317341 12.6219 0.706476 13.0136L1.95629 14.2717C2.70332 15.0188 3.84001 15.2123 4.78478 14.7535C6.22647 14.0533 8.40226 12.7613 10.5808 10.5828C12.7593 8.40429 14.0512 6.22847 14.7515 4.78678C14.9174 4.44518 14.998 4.07853 14.998 3.71425C14.998 3.07101 14.7466 2.43521 14.2697 1.95829ZM13.6982 4.27514C13.0372 5.63606 11.8162 7.69141 9.75278 9.75479C7.68935 11.8182 5.63403 13.0392 4.27317 13.7002C3.77702 13.9412 3.17864 13.8381 2.78562 13.4451L2.36216 13.0188C1.97303 12.6271 1.97503 11.9941 2.36665 11.6048L3.31949 10.6577C3.70858 10.2709 4.33661 10.2699 4.72701 10.6553L5.10226 11.0257C5.2738 11.1951 5.53158 11.242 5.75178 11.1439V11.1439C5.8111 11.1175 7.22315 10.4786 8.81297 8.88874C10.4038 7.29787 11.0295 5.89777 11.0554 5.83891V5.83891C11.1511 5.62109 11.1055 5.36698 10.94 5.19605L10.5522 4.79559C10.1722 4.4031 10.1775 3.77826 10.5641 3.39227L11.5995 2.35852C11.9897 1.96902 12.6214 1.96873 13.0119 2.35787L13.4422 2.78668C13.8361 3.18117 13.9391 3.77926 13.6982 4.27514Z" fill="#1A1A1A"/>
</g>
<defs>
<clipPath id="clip0">
<rect width="15" height="15" fill="white"/>
</clipPath>
</defs>
</svg>
