<svg width="185" height="240" viewBox="0 0 185 240" fill="none" xmlns="http://www.w3.org/2000/svg">
<path d="M54.5623 90.0736L2.92379 78.9392L2.25271 78.7949C1.91096 78.7207 1.5552 78.7444 1.22635 78.8633C0.89749 78.9822 0.608887 79.1915 0.39373 79.4671C0.178572 79.7427 0.0455904 80.0733 0.0100873 80.4211C-0.0254157 80.7689 0.0380044 81.1196 0.193039 81.4329L20.6956 123.051C20.8283 123.318 21.0233 123.55 21.2642 123.726C21.5052 123.902 21.785 124.018 22.08 124.064C22.3761 124.11 22.6788 124.083 22.9622 123.986C23.2456 123.889 23.501 123.724 23.7065 123.506L37.9471 108.497C38.0484 108.388 38.1713 108.301 38.308 108.241C38.4447 108.181 38.5923 108.151 38.7415 108.151C38.9442 108.148 39.144 108.2 39.3193 108.302C39.4946 108.404 39.6389 108.551 39.7367 108.729L42.6536 114.122C42.8398 114.482 43.141 114.768 43.5093 114.937C43.8775 115.106 44.2916 115.147 44.6857 115.053L44.7002 115.05C45.099 114.965 45.4579 114.749 45.7191 114.436C45.9802 114.123 46.1286 113.732 46.1402 113.324L46.7245 100.876C46.7315 100.72 46.7703 100.568 46.8385 100.428C46.9118 100.29 47.0112 100.167 47.1313 100.067L55.3468 93.326C55.6169 93.1044 55.819 92.8113 55.93 92.4802C56.0411 92.1491 56.0565 91.7934 55.9746 91.4539C55.8927 91.1144 55.7168 90.8049 55.467 90.5608C55.2172 90.3166 54.9036 90.1478 54.5623 90.0736H54.5623ZM54.8777 92.7529L46.6622 99.4939C46.5551 99.5801 46.4581 99.6781 46.373 99.786L2.83047 80.0473C2.79206 80.0294 2.752 80.0154 2.71085 80.0053C2.5429 79.9621 2.3651 79.9788 2.20821 80.0527C2.05131 80.1266 1.92518 80.253 1.85163 80.41C1.77808 80.567 1.76174 80.7447 1.80543 80.9125C1.84912 81.0803 1.9501 81.2275 2.09089 81.3288L37.8926 107.616C37.7109 107.71 37.5469 107.835 37.4077 107.986L23.1673 122.994C23.0437 123.124 22.8906 123.223 22.7209 123.281C22.5512 123.339 22.37 123.355 22.1926 123.328C22.0153 123.302 21.847 123.232 21.7022 123.127C21.5573 123.021 21.4401 122.882 21.3606 122.721L0.858029 81.1033C0.766372 80.9153 0.729393 80.7053 0.751314 80.4973C0.773234 80.2893 0.853166 80.0916 0.982007 79.9267C1.11085 79.7619 1.28342 79.6366 1.48005 79.565C1.67668 79.4934 1.88947 79.4785 2.09418 79.5219L2.78121 79.6703L54.4036 90.8007C54.6085 90.8451 54.7969 90.9462 54.947 91.0926C55.0971 91.239 55.203 91.4246 55.2525 91.6283C55.3019 91.8321 55.293 92.0456 55.2267 92.2445C55.1605 92.4433 55.0395 92.6195 54.8777 92.7529V92.7529Z" fill="#8A88EC"/>
<path d="M65.5697 238.537C60.9377 237.287 55.3006 232.086 56.5074 224.937C57.106 221.392 59.4032 219.096 61.7852 217.612C65.0799 215.56 68.8323 214.786 72.4484 214.591C76.6193 214.365 80.7856 214.934 84.9253 215.535C89.0121 216.128 93.0993 216.659 97.2044 216.984C113.268 218.243 129.429 217.044 145.13 213.427C149.005 212.533 152.857 211.484 156.686 210.281C160.314 209.213 163.861 207.888 167.3 206.315C171.852 204.131 179.255 199.88 178.651 192.008C178.331 187.834 175.872 184.5 173.391 182.177C170.392 179.369 166.922 177.521 163.522 175.727C147.711 167.381 131.869 159.133 116.042 150.837C112.349 148.901 108.63 147.017 105.046 144.748C101.689 142.624 98.3487 140.156 95.6478 136.744C93.2887 133.764 91.1806 129.763 91.255 125.291C91.3167 121.582 93.0052 118.435 95.0732 116.083C100.193 110.259 107.436 107.898 113.982 106.661C122.115 105.125 130.365 105.133 138.503 103.649C145.074 102.451 152.095 100.138 157.439 94.7181C159.7 92.5136 161.299 89.7213 162.055 86.6564C162.738 83.4463 162.406 80.1036 161.106 77.0901C159.658 73.6339 157.349 70.8806 154.921 68.6262C152.132 66.0724 148.969 63.96 145.541 62.3619C138.323 58.924 130.733 57.1341 123.34 54.4958C119.715 53.2019 116.052 51.7831 112.685 49.5607C109.833 47.6779 106.726 45.1399 105.139 41.3658C101.865 33.5789 109.676 28.9381 114.102 27.1802C117.11 26.0397 120.209 25.153 123.365 24.5295C124.033 24.3862 123.749 23.0546 123.085 23.1972C119.763 23.8447 116.507 24.795 113.358 26.0364C110.689 27.1448 107.935 28.6015 105.838 31.1082C104.884 32.24 104.178 33.5598 103.767 34.9818C103.356 36.4039 103.248 37.8965 103.452 39.3628C104.007 43.099 106.421 45.9779 108.688 48.0631C111.686 50.8206 115.104 52.6214 118.569 54.0893C122.219 55.6354 125.947 56.8402 129.673 58.0221C137.119 60.3837 144.898 62.4882 151.62 67.5135C156.321 71.0289 162.709 77.62 161.145 85.7898C160.45 89.4164 158.342 92.2519 156.067 94.3373C153.395 96.7143 150.314 98.5869 146.973 99.8642C132.079 105.856 115.686 101.571 101.175 109.709C96.2416 112.476 90.2489 117.514 90.2007 125.44C90.1756 129.558 91.8269 133.334 93.8683 136.319C96.3134 139.894 99.4796 142.538 102.701 144.748C106.093 146.989 109.615 149.027 113.249 150.852C117.218 152.936 121.188 155.017 125.159 157.095L149.258 169.727L161.232 176.004C164.886 177.919 168.634 179.757 171.957 182.569C174.677 184.871 177.892 188.648 177.614 193.339C177.394 197.063 174.918 199.752 172.656 201.549C169.727 203.876 166.436 205.381 163.162 206.632C159.386 208.074 155.548 209.271 151.702 210.347C143.824 212.548 135.784 214.121 127.658 215.051C119.552 215.984 111.385 216.288 103.232 215.961C99.1124 215.796 94.9993 215.466 90.8925 214.973C86.6593 214.464 82.4442 213.678 78.2001 213.33C74.3612 213.015 70.4854 213.088 66.7048 214.101C63.5482 214.946 60.2132 216.454 57.8171 219.394C56.0509 221.64 55.1665 224.452 55.3302 227.304C55.4925 230.149 56.5074 232.88 58.2432 235.141C60.0063 237.451 62.4836 239.113 65.2897 239.87C65.9514 240.048 66.2344 238.717 65.5698 238.537L65.5697 238.537Z" fill="#E6E6E6"/>
<path d="M185 239.168H64.6503V240H185V239.168Z" fill="#3F3D56"/>
<path d="M175.358 199.981C179.7 199.981 183.22 196.463 183.22 192.123C183.22 187.782 179.7 184.264 175.358 184.264C171.015 184.264 167.495 187.782 167.495 192.123C167.495 196.463 171.015 199.981 175.358 199.981Z" fill="#E6E6E6"/>
<path d="M161.014 89.2175C165.356 89.2175 168.876 85.699 168.876 81.3588C168.876 77.0186 165.356 73.5001 161.014 73.5001C156.672 73.5001 153.152 77.0186 153.152 81.3588C153.152 85.699 156.672 89.2175 161.014 89.2175Z" fill="#E6E6E6"/>
<path d="M143.239 0.32874L121.408 9.81481C120.444 10.2351 119.686 11.0204 119.3 11.9986C118.915 12.9768 118.933 14.068 119.351 15.0326L126.13 30.619C126.55 31.5827 127.336 32.3404 128.315 32.7258C129.293 33.1112 130.385 33.0929 131.35 32.6748L153.181 23.1887C154.145 22.7685 154.903 21.9831 155.288 21.0049C155.674 20.0267 155.656 18.9356 155.237 17.9709L148.459 2.38455C148.038 1.42081 147.253 0.663119 146.274 0.277714C145.295 -0.107692 144.204 -0.0893404 143.239 0.32874V0.32874ZM144.142 2.40692C144.273 2.3508 144.41 2.31134 144.55 2.28947L137.17 16.2085L122.011 12.0619C122.105 11.9955 122.206 11.9389 122.312 11.893L144.142 2.40692ZM152.277 21.1106L130.446 30.5966C130.033 30.7758 129.565 30.7837 129.145 30.6185C128.726 30.4533 128.389 30.1286 128.209 29.7156L121.491 14.2692L137.447 18.6337C137.696 18.7017 137.96 18.683 138.196 18.5808C138.433 18.4786 138.627 18.299 138.748 18.0715L146.473 3.50263L153.158 18.8743C153.338 19.2878 153.345 19.7554 153.18 20.1746C153.015 20.5939 152.69 20.9304 152.277 21.1106V21.1106Z" fill="#E6E6E6"/>
<path d="M118.753 135.527C129.731 135.527 138.631 126.632 138.631 115.658C138.631 104.685 129.731 95.7894 118.753 95.7894C107.775 95.7894 98.8752 104.685 98.8752 115.658C98.8752 126.632 107.775 135.527 118.753 135.527Z" fill="#8A88EC"/>
<path d="M115.621 239.413H110.139C109.499 239.412 108.885 239.158 108.433 238.705C107.98 238.253 107.725 237.639 107.725 237V191.331C107.725 190.691 107.98 190.078 108.433 189.625C108.885 189.173 109.499 188.918 110.139 188.918H115.621C116.261 188.918 116.874 189.173 117.327 189.625C117.78 190.078 118.034 190.691 118.035 191.331V237C118.034 237.639 117.78 238.253 117.327 238.705C116.874 239.158 116.261 239.412 115.621 239.413Z" fill="#2F2E41"/>
<path d="M126.463 239.413H120.981C120.341 239.412 119.728 239.158 119.275 238.705C118.822 238.253 118.568 237.639 118.567 237V191.331C118.568 190.691 118.822 190.078 119.275 189.625C119.728 189.173 120.341 188.918 120.981 188.918H126.463C127.103 188.918 127.717 189.173 128.169 189.625C128.622 190.078 128.877 190.691 128.877 191.331V237C128.877 237.639 128.622 238.253 128.169 238.705C127.717 239.158 127.103 239.412 126.463 239.413Z" fill="#2F2E41"/>
<path d="M149.18 186.555C148.939 186.555 148.7 186.519 148.469 186.448C148.166 186.356 147.884 186.205 147.639 186.003C147.395 185.801 147.193 185.553 147.045 185.272L125.627 144.932C125.479 144.652 125.387 144.346 125.356 144.03C125.326 143.715 125.359 143.396 125.451 143.093C125.544 142.79 125.696 142.509 125.898 142.264C126.1 142.02 126.348 141.818 126.628 141.669L131.47 139.101C131.75 138.952 132.057 138.86 132.372 138.83C132.688 138.8 133.006 138.832 133.31 138.925C133.613 139.018 133.895 139.169 134.139 139.371C134.384 139.573 134.586 139.821 134.734 140.101L156.152 180.441C156.3 180.721 156.392 181.028 156.422 181.343C156.453 181.659 156.42 181.977 156.327 182.28C156.235 182.583 156.083 182.865 155.881 183.109C155.679 183.353 155.431 183.555 155.151 183.704L150.309 186.273C149.961 186.458 149.574 186.555 149.18 186.555V186.555Z" fill="#8A88EC"/>
<path d="M104.594 149.372C104.305 149.372 104.017 149.32 103.746 149.217H103.746L61.0048 133.078C60.7084 132.966 60.4369 132.796 60.2059 132.579C59.975 132.362 59.7891 132.102 59.6589 131.813C59.5286 131.524 59.4566 131.213 59.447 130.896C59.4373 130.579 59.4902 130.264 59.6026 129.968L61.5362 124.842C61.7644 124.244 62.2202 123.76 62.804 123.498C63.3877 123.235 64.0518 123.214 64.651 123.439L107.391 139.575C107.989 139.803 108.473 140.257 108.736 140.84C109 141.422 109.022 142.086 108.798 142.684L106.86 147.811C106.685 148.27 106.375 148.665 105.97 148.944C105.566 149.223 105.086 149.372 104.594 149.372V149.372Z" fill="#8A88EC"/>
<path d="M130.981 138.979H106.073C104.842 138.979 103.845 139.977 103.845 141.207V194.101C103.845 195.331 104.842 196.328 106.073 196.328H130.981C132.212 196.328 133.209 195.331 133.209 194.101V141.207C133.209 139.977 132.212 138.979 130.981 138.979Z" fill="#2F2E41"/>
<path d="M120.95 122.292C119.723 122.258 118.194 122.215 117.017 121.356C116.667 121.089 116.379 120.749 116.173 120.36C115.968 119.971 115.85 119.541 115.829 119.101C115.807 118.789 115.859 118.476 115.979 118.186C116.098 117.897 116.284 117.639 116.52 117.433C117.134 116.914 118.032 116.792 119 117.077L117.997 109.753L118.734 109.652L119.912 118.261L119.298 117.98C118.586 117.653 117.607 117.487 116.999 118C116.85 118.134 116.734 118.301 116.659 118.488C116.585 118.674 116.555 118.875 116.571 119.075C116.589 119.402 116.677 119.722 116.83 120.012C116.983 120.302 117.196 120.556 117.455 120.756C118.372 121.425 119.59 121.512 120.972 121.55L120.95 122.292Z" fill="#2F2E41"/>
<path d="M114.358 110.385H110.357V111.127H114.358V110.385Z" fill="#2F2E41"/>
<path d="M126.986 110.385H122.985V111.127H126.986V110.385Z" fill="#2F2E41"/>
<path d="M103.812 149.044L86.2463 143.69C85.6985 143.523 85.236 143.151 84.9549 142.653C84.6737 142.154 84.5954 141.566 84.7363 141.011L86.7869 132.935C86.8679 132.616 87.0187 132.319 87.2283 132.065C87.4379 131.811 87.7012 131.607 87.9992 131.467C88.2972 131.327 88.6226 131.255 88.9519 131.255C89.2812 131.256 89.6062 131.33 89.9036 131.471L107.326 139.749C107.878 139.958 108.325 140.378 108.568 140.916C108.811 141.454 108.831 142.066 108.624 142.619L106.687 147.746C106.477 148.299 106.057 148.746 105.518 148.989C104.979 149.232 104.365 149.252 103.812 149.044V149.044Z" fill="#2F2E41"/>
<path d="M125.943 144.475L133.476 161.215C133.711 161.737 134.138 162.149 134.668 162.365C135.199 162.58 135.792 162.584 136.325 162.374L144.081 159.32C144.387 159.199 144.663 159.012 144.889 158.772C145.114 158.532 145.283 158.246 145.385 157.932C145.486 157.619 145.517 157.287 145.474 156.961C145.432 156.635 145.318 156.322 145.14 156.045L134.723 139.816C134.445 139.295 133.972 138.905 133.408 138.732C132.843 138.558 132.233 138.616 131.711 138.891L126.868 141.46C126.345 141.738 125.955 142.211 125.781 142.776C125.608 143.342 125.666 143.953 125.943 144.475V144.475Z" fill="#2F2E41"/>
<path d="M54.5623 90.0736L2.92379 78.9392L2.25271 78.7949C1.91096 78.7207 1.5552 78.7444 1.22635 78.8633C0.89749 78.9822 0.608887 79.1915 0.39373 79.4671C0.178572 79.7427 0.0455904 80.0733 0.0100873 80.4211C-0.0254157 80.7689 0.0380044 81.1196 0.193039 81.4329L20.6956 123.051C20.8283 123.318 21.0233 123.55 21.2642 123.726C21.5052 123.902 21.785 124.018 22.08 124.064C22.3761 124.11 22.6788 124.083 22.9622 123.986C23.2456 123.889 23.501 123.724 23.7065 123.506L37.9471 108.497C38.0484 108.388 38.1713 108.301 38.308 108.241C38.4447 108.181 38.5923 108.151 38.7415 108.151C38.9442 108.148 39.144 108.2 39.3193 108.302C39.4946 108.404 39.6389 108.551 39.7367 108.729L42.6536 114.122C42.8398 114.482 43.141 114.768 43.5093 114.937C43.8775 115.106 44.2916 115.147 44.6857 115.053L44.7002 115.05C45.099 114.965 45.4579 114.749 45.7191 114.436C45.9802 114.123 46.1286 113.732 46.1402 113.324L46.7245 100.876C46.7315 100.72 46.7703 100.568 46.8385 100.428C46.9118 100.29 47.0112 100.167 47.1313 100.067L55.3468 93.326C55.6169 93.1044 55.819 92.8113 55.93 92.4802C56.0411 92.1491 56.0565 91.7934 55.9746 91.4539C55.8927 91.1144 55.7168 90.8049 55.467 90.5608C55.2172 90.3166 54.9036 90.1478 54.5623 90.0736H54.5623ZM54.8777 92.7529L46.6622 99.4939C46.5551 99.5801 46.4581 99.6781 46.373 99.786C46.2962 99.8819 46.2299 99.9858 46.1752 100.096C46.1179 100.208 46.0728 100.327 46.0405 100.449L46.0413 100.452C46.0073 100.58 45.9877 100.71 45.9828 100.842L45.3987 113.29C45.3938 113.535 45.3057 113.771 45.1489 113.959C44.9921 114.147 44.776 114.276 44.536 114.325L44.5287 114.327C44.2923 114.386 44.0429 114.363 43.8211 114.262C43.5992 114.161 43.4179 113.989 43.3065 113.772L40.3888 108.376C40.2385 108.098 40.0197 107.864 39.7532 107.694C39.4867 107.525 39.1814 107.426 38.8661 107.408L38.8626 107.409C38.8202 107.407 38.7779 107.405 38.7365 107.407C38.4423 107.407 38.1526 107.479 37.8926 107.616C37.7109 107.71 37.5469 107.835 37.4077 107.986L23.1673 122.994C23.0437 123.124 22.8906 123.223 22.7209 123.281C22.5512 123.339 22.37 123.355 22.1926 123.328C22.0153 123.302 21.847 123.232 21.7022 123.127C21.5573 123.021 21.4401 122.882 21.3606 122.721L0.858029 81.1033C0.766372 80.9153 0.729393 80.7053 0.751314 80.4973C0.773234 80.2893 0.853166 80.0916 0.982007 79.9267C1.11085 79.7619 1.28342 79.6366 1.48005 79.565C1.67668 79.4934 1.88947 79.4785 2.09418 79.5219L2.78121 79.6703L54.4036 90.8007C54.6085 90.8451 54.7969 90.9462 54.947 91.0926C55.0971 91.239 55.203 91.4246 55.2525 91.6283C55.3019 91.8321 55.293 92.0456 55.2267 92.2445C55.1605 92.4433 55.0395 92.6195 54.8777 92.7529V92.7529Z" fill="#3F3D56"/>
<path d="M46.5378 99.8598L46.2309 100.536L46.0414 100.452L46.0406 100.449L2.53254 80.7292L38.8626 107.409L38.8662 107.408L38.9624 107.482L38.5243 108.081L37.8927 107.616L2.09094 81.3287C1.95015 81.2275 1.84917 81.0803 1.80548 80.9125C1.76179 80.7447 1.77813 80.5669 1.85168 80.4099C1.92523 80.2529 2.05136 80.1266 2.20825 80.0527C2.36515 79.9788 2.54295 79.962 2.7109 80.0053C2.75205 80.0153 2.79211 80.0294 2.83051 80.0472L46.373 99.7859L46.5378 99.8598Z" fill="#3F3D56"/>
</svg>
