<svg width="99" height="72" viewBox="0 0 99 72" fill="none" xmlns="http://www.w3.org/2000/svg">
<path fill-rule="evenodd" clip-rule="evenodd" d="M19.1219 18.3994C19.5534 16.9177 20.2485 15.5676 21.1473 14.3944L8.55707 22.1196C3.26298 25.2937 0.0171204 31.0043 0 37.1736C0.132399 44.5068 4.59973 50.7485 10.92 53.4986V43.4C10.92 42.6 11.16 41.95 11.64 41.45C12.12 40.95 12.74 40.7 13.5 40.7C14.36 40.7 15.03 41 15.51 41.6L24.63 52.94V43.4C24.63 42.58 24.86 41.93 25.32 41.45C25.8 40.95 26.42 40.7 27.18 40.7C27.94 40.7 28.56 40.95 29.04 41.45C29.54 41.95 29.79 42.6 29.79 43.4V54.998H32.5699C42.5783 55.1434 50.8195 47.1733 51 37.1736C50.9927 34.5292 50.3921 31.9692 49.2914 29.657C48.5004 30.5984 47.5631 31.425 46.502 32.1004L36.114 38.7105C35.6744 38.9909 35.1126 38.9909 34.6734 38.711L24.2851 32.1006C19.709 29.1895 17.6049 23.6064 19.1219 18.3994ZM20.1311 54.998L16.05 49.91V54.8785C16.8297 54.9688 17.6241 55.0097 18.4301 54.998H20.1311Z" fill="#8A88EC"/>
<path d="M44.8518 14.6557C43.2557 13.0505 41.0831 12.1507 38.8192 12.1566L32.441 12.157C28.6471 12.156 25.3089 14.6604 24.2481 18.3029C23.1871 21.945 24.6588 25.8502 27.8597 27.8865L35.1261 32.5103C35.4333 32.7061 35.8262 32.7061 36.1337 32.51L43.3999 27.8863C45.5832 26.4967 47.0174 24.1918 47.3 21.6194C47.5823 19.0468 46.6815 16.4854 44.8518 14.6557Z" fill="#30BE58"/>
<path opacity="0.5" d="M70.35 31.09C70.73 31.09 71.02 31.2 71.22 31.42C71.44 31.64 71.55 31.93 71.55 32.29V44.98C71.55 45.32 71.44 45.6 71.22 45.82C71.02 46.04 70.73 46.15 70.35 46.15C69.99 46.15 69.7 46.05 69.48 45.85C69.28 45.63 69.18 45.35 69.18 45.01V43.51C68.72 44.39 68.07 45.06 67.23 45.52C66.41 45.98 65.48 46.21 64.44 46.21C62.7 46.21 61.39 45.73 60.51 44.77C59.63 43.79 59.19 42.35 59.19 40.45V32.29C59.19 31.93 59.3 31.64 59.52 31.42C59.74 31.2 60.04 31.09 60.42 31.09C60.8 31.09 61.09 31.2 61.29 31.42C61.51 31.64 61.62 31.93 61.62 32.29V40.39C61.62 41.69 61.88 42.65 62.4 43.27C62.92 43.87 63.74 44.17 64.86 44.17C66.14 44.17 67.17 43.76 67.95 42.94C68.73 42.1 69.12 41 69.12 39.64V32.29C69.12 31.93 69.23 31.64 69.45 31.42C69.67 31.2 69.97 31.09 70.35 31.09ZM82.8164 44.23C83.5164 44.29 83.8664 44.61 83.8664 45.19C83.8664 45.53 83.7364 45.79 83.4764 45.97C83.2364 46.13 82.8664 46.19 82.3664 46.15L81.5564 46.09C79.9564 45.97 78.7764 45.49 78.0164 44.65C77.2564 43.81 76.8764 42.54 76.8764 40.84V33.31H74.8664C74.5264 33.31 74.2564 33.23 74.0564 33.07C73.8764 32.89 73.7864 32.66 73.7864 32.38C73.7864 32.08 73.8764 31.84 74.0564 31.66C74.2564 31.48 74.5264 31.39 74.8664 31.39H76.8764V28C76.8764 27.62 76.9864 27.33 77.2064 27.13C77.4264 26.91 77.7264 26.8 78.1064 26.8C78.4664 26.8 78.7564 26.91 78.9764 27.13C79.1964 27.33 79.3064 27.62 79.3064 28V31.39H82.6364C82.9564 31.39 83.2064 31.48 83.3864 31.66C83.5864 31.84 83.6864 32.08 83.6864 32.38C83.6864 32.66 83.5864 32.89 83.3864 33.07C83.2064 33.23 82.9564 33.31 82.6364 33.31H79.3064V40.96C79.3064 42.06 79.5264 42.86 79.9664 43.36C80.4264 43.84 81.1064 44.11 82.0064 44.17L82.8164 44.23ZM91.1817 46.21C90.2617 46.21 89.3817 46.1 88.5417 45.88C87.7217 45.66 86.9917 45.35 86.3517 44.95C85.9917 44.71 85.7317 44.49 85.5717 44.29C85.4317 44.07 85.3617 43.81 85.3617 43.51C85.3617 43.25 85.4317 43.04 85.5717 42.88C85.7317 42.7 85.9317 42.61 86.1717 42.61C86.4117 42.61 86.7617 42.76 87.2217 43.06C87.8217 43.42 88.4117 43.71 88.9917 43.93C89.5917 44.13 90.3317 44.23 91.2117 44.23C92.2917 44.23 93.1317 44.04 93.7317 43.66C94.3317 43.28 94.6317 42.73 94.6317 42.01C94.6317 41.57 94.5217 41.22 94.3017 40.96C94.0817 40.68 93.7017 40.44 93.1617 40.24C92.6217 40.02 91.8317 39.8 90.7917 39.58C89.0317 39.2 87.7717 38.69 87.0117 38.05C86.2517 37.41 85.8717 36.54 85.8717 35.44C85.8717 34.58 86.1117 33.82 86.5917 33.16C87.0717 32.5 87.7317 31.98 88.5717 31.6C89.4317 31.22 90.4017 31.03 91.4817 31.03C92.2617 31.03 93.0117 31.14 93.7317 31.36C94.4717 31.56 95.1217 31.85 95.6817 32.23C96.3617 32.71 96.7017 33.21 96.7017 33.73C96.7017 33.99 96.6217 34.21 96.4617 34.39C96.3017 34.57 96.1117 34.66 95.8917 34.66C95.6517 34.66 95.2917 34.49 94.8117 34.15C94.2517 33.79 93.7217 33.51 93.2217 33.31C92.7217 33.11 92.1017 33.01 91.3617 33.01C90.4217 33.01 89.6617 33.22 89.0817 33.64C88.5217 34.06 88.2417 34.62 88.2417 35.32C88.2417 35.76 88.3417 36.12 88.5417 36.4C88.7617 36.66 89.1117 36.9 89.5917 37.12C90.0917 37.32 90.8017 37.52 91.7217 37.72C93.0817 38.02 94.1317 38.35 94.8717 38.71C95.6317 39.07 96.1717 39.51 96.4917 40.03C96.8117 40.55 96.9717 41.21 96.9717 42.01C96.9717 43.27 96.4417 44.29 95.3817 45.07C94.3217 45.83 92.9217 46.21 91.1817 46.21Z" fill="#8A88EC"/>
<mask id="mask0" mask-type="alpha" maskUnits="userSpaceOnUse" x="6" y="54" width="32" height="18">
<rect x="6" y="54" width="32" height="18" fill="#C4C4C4"/>
</mask>
<g mask="url(#mask0)">
<path d="M29.18 43.7C29.94 43.7 30.56 43.95 31.04 44.45C31.54 44.95 31.79 45.6 31.79 46.4V62.45C31.79 63.27 31.55 63.93 31.07 64.43C30.59 64.93 29.97 65.18 29.21 65.18C28.31 65.18 27.63 64.88 27.17 64.28L18.05 52.91V62.45C18.05 63.27 17.82 63.93 17.36 64.43C16.9 64.93 16.28 65.18 15.5 65.18C14.74 65.18 14.12 64.93 13.64 64.43C13.16 63.93 12.92 63.27 12.92 62.45V46.4C12.92 45.6 13.16 44.95 13.64 44.45C14.12 43.95 14.74 43.7 15.5 43.7C16.36 43.7 17.03 44 17.51 44.6L26.63 55.94V46.4C26.63 45.58 26.86 44.93 27.32 44.45C27.8 43.95 28.42 43.7 29.18 43.7Z" fill="#8A88EC"/>
</g>
</svg>
